<svg xmlns="http://www.w3.org/2000/svg" xmlns:xlink="http://www.w3.org/1999/xlink" xmlns:s="https://github.com/nturley/netlistsvg" width="1284" height="1264.5">
  <style>svg {
    stroke:#000;
    fill:none;
  }
  text {
    fill:#000;
    stroke:none;
    font-size:10px;
    font-weight: bold;
    font-family: "Courier New", monospace;
  }
  .nodelabel {
    text-anchor: middle;
  }
  .inputPortLabel {
    text-anchor: end;
  }
  .splitjoinBody {
    fill:#000;
  }</style>
  <g s:type="add" transform="translate(675,137)" s:width="25" s:height="25" id="cell_$add$./LCD_Controller.v:69$43">
    <s:alias val="$add"/>
    <circle r="12.5" cx="12.5" cy="12.5" class="cell_$add$./LCD_Controller.v:69$43"/>
    <line x1="7.5" x2="17.5" y1="12.5" y2="12.5" class="cell_$add$./LCD_Controller.v:69$43"/>
    <line x1="12.5" x2="12.5" y1="7.5" y2="17.5" class="cell_$add$./LCD_Controller.v:69$43"/>
    <g s:x="3" s:y="5" s:pid="A"/>
    <g s:x="3" s:y="20" s:pid="B"/>
    <g s:x="25" s:y="12.5" s:pid="Y"/>
  </g>
  <g s:type="eq" transform="translate(560.3333333333333,901.5)" s:width="25" s:height="25" id="cell_$eq$./LCD_Controller.v:53$41">
    <s:alias val="$eq"/>
    <circle r="12.5" cx="12.5" cy="12.5" class="cell_$eq$./LCD_Controller.v:53$41"/>
    <line x1="7.5" x2="17.5" y1="10" y2="10" class="cell_$eq$./LCD_Controller.v:53$41"/>
    <line x1="7.5" x2="17.5" y1="15" y2="15" class="cell_$eq$./LCD_Controller.v:53$41"/>
    <g s:x="3" s:y="5" s:pid="A"/>
    <g s:x="3" s:y="20" s:pid="B"/>
    <g s:x="25" s:y="12.5" s:pid="Y"/>
  </g>
  <g s:type="lt" transform="translate(675,438)" s:width="25" s:height="25" id="cell_$lt$./LCD_Controller.v:68$42">
    <s:alias val="$lt"/>
    <circle r="12.5" cx="12.5" cy="12.5" class="cell_$lt$./LCD_Controller.v:68$42"/>
    <line x1="7.5" x2="17.5" y1="12.5" y2="7.5" class="cell_$lt$./LCD_Controller.v:68$42"/>
    <line x1="7.5" x2="17.5" y1="12.5" y2="17.5" class="cell_$lt$./LCD_Controller.v:68$42"/>
    <g s:x="3" s:y="5" s:pid="A"/>
    <g s:x="3" s:y="20" s:pid="B"/>
    <g s:x="25" s:y="12.5" s:pid="Y"/>
  </g>
  <g s:type="generic" transform="translate(952,202)" s:width="30" s:height="40" id="cell_$procdff$120">
    <text x="15" y="-4" class="nodelabel cell_$procdff$120" s:attribute="ref">$adff</text>
    <rect width="30" height="60" s:generic="body" class="cell_$procdff$120"/>
    <g transform="translate(0,10)" s:x="0" s:y="10" s:pid="in0" id="port_$procdff$120~ARST">
      <text x="-3" y="-4" class="inputPortLabel cell_$procdff$120">ARST</text>
    </g>
    <g transform="translate(0,30)" s:x="0" s:y="10" s:pid="in0" id="port_$procdff$120~CLK">
      <text x="-3" y="-4" class="inputPortLabel cell_$procdff$120">CLK</text>
    </g>
    <g transform="translate(0,50)" s:x="0" s:y="10" s:pid="in0" id="port_$procdff$120~D">
      <text x="-3" y="-4" class="inputPortLabel cell_$procdff$120">D</text>
    </g>
    <g transform="translate(30,10)" s:x="30" s:y="10" s:pid="out0" id="port_$procdff$120~Q">
      <text x="5" y="-4" style="fill:#000; stroke:none" class="cell_$procdff$120">Q</text>
    </g>
  </g>
  <g s:type="generic" transform="translate(1089,1158.5)" s:width="30" s:height="40" id="cell_$procdff$121">
    <text x="15" y="-4" class="nodelabel cell_$procdff$121" s:attribute="ref">$adff</text>
    <rect width="30" height="60" s:generic="body" class="cell_$procdff$121"/>
    <g transform="translate(0,10)" s:x="0" s:y="10" s:pid="in0" id="port_$procdff$121~ARST">
      <text x="-3" y="-4" class="inputPortLabel cell_$procdff$121">ARST</text>
    </g>
    <g transform="translate(0,30)" s:x="0" s:y="10" s:pid="in0" id="port_$procdff$121~CLK">
      <text x="-3" y="-4" class="inputPortLabel cell_$procdff$121">CLK</text>
    </g>
    <g transform="translate(0,50)" s:x="0" s:y="10" s:pid="in0" id="port_$procdff$121~D">
      <text x="-3" y="-4" class="inputPortLabel cell_$procdff$121">D</text>
    </g>
    <g transform="translate(30,10)" s:x="30" s:y="10" s:pid="out0" id="port_$procdff$121~Q">
      <text x="5" y="-4" style="fill:#000; stroke:none" class="cell_$procdff$121">Q</text>
    </g>
  </g>
  <g s:type="generic" transform="translate(553,33)" s:width="30" s:height="40" id="cell_$procdff$122">
    <text x="15" y="-4" class="nodelabel cell_$procdff$122" s:attribute="ref">$adff</text>
    <rect width="30" height="60" s:generic="body" class="cell_$procdff$122"/>
    <g transform="translate(0,10)" s:x="0" s:y="10" s:pid="in0" id="port_$procdff$122~ARST">
      <text x="-3" y="-4" class="inputPortLabel cell_$procdff$122">ARST</text>
    </g>
    <g transform="translate(0,30)" s:x="0" s:y="10" s:pid="in0" id="port_$procdff$122~CLK">
      <text x="-3" y="-4" class="inputPortLabel cell_$procdff$122">CLK</text>
    </g>
    <g transform="translate(0,50)" s:x="0" s:y="10" s:pid="in0" id="port_$procdff$122~D">
      <text x="-3" y="-4" class="inputPortLabel cell_$procdff$122">D</text>
    </g>
    <g transform="translate(30,10)" s:x="30" s:y="10" s:pid="out0" id="port_$procdff$122~Q">
      <text x="5" y="-4" style="fill:#000; stroke:none" class="cell_$procdff$122">Q</text>
    </g>
  </g>
  <g s:type="generic" transform="translate(553,634.5)" s:width="30" s:height="40" id="cell_$procdff$123">
    <text x="15" y="-4" class="nodelabel cell_$procdff$123" s:attribute="ref">$adff</text>
    <rect width="30" height="60" s:generic="body" class="cell_$procdff$123"/>
    <g transform="translate(0,10)" s:x="0" s:y="10" s:pid="in0" id="port_$procdff$123~ARST">
      <text x="-3" y="-4" class="inputPortLabel cell_$procdff$123">ARST</text>
    </g>
    <g transform="translate(0,30)" s:x="0" s:y="10" s:pid="in0" id="port_$procdff$123~CLK">
      <text x="-3" y="-4" class="inputPortLabel cell_$procdff$123">CLK</text>
    </g>
    <g transform="translate(0,50)" s:x="0" s:y="10" s:pid="in0" id="port_$procdff$123~D">
      <text x="-3" y="-4" class="inputPortLabel cell_$procdff$123">D</text>
    </g>
    <g transform="translate(30,10)" s:x="30" s:y="10" s:pid="out0" id="port_$procdff$123~Q">
      <text x="5" y="-4" style="fill:#000; stroke:none" class="cell_$procdff$123">Q</text>
    </g>
  </g>
  <g s:type="generic" transform="translate(351,906)" s:width="30" s:height="40" id="cell_$procdff$124">
    <text x="15" y="-4" class="nodelabel cell_$procdff$124" s:attribute="ref">$adff</text>
    <rect width="30" height="60" s:generic="body" class="cell_$procdff$124"/>
    <g transform="translate(0,10)" s:x="0" s:y="10" s:pid="in0" id="port_$procdff$124~ARST">
      <text x="-3" y="-4" class="inputPortLabel cell_$procdff$124">ARST</text>
    </g>
    <g transform="translate(0,30)" s:x="0" s:y="10" s:pid="in0" id="port_$procdff$124~CLK">
      <text x="-3" y="-4" class="inputPortLabel cell_$procdff$124">CLK</text>
    </g>
    <g transform="translate(0,50)" s:x="0" s:y="10" s:pid="in0" id="port_$procdff$124~D">
      <text x="-3" y="-4" class="inputPortLabel cell_$procdff$124">D</text>
    </g>
    <g transform="translate(30,10)" s:x="30" s:y="10" s:pid="out0" id="port_$procdff$124~Q">
      <text x="5" y="-4" style="fill:#000; stroke:none" class="cell_$procdff$124">Q</text>
    </g>
  </g>
  <g s:type="generic" transform="translate(775,810)" s:width="30" s:height="40" id="cell_$procdff$125">
    <text x="15" y="-4" class="nodelabel cell_$procdff$125" s:attribute="ref">$adff</text>
    <rect width="30" height="60" s:generic="body" class="cell_$procdff$125"/>
    <g transform="translate(0,10)" s:x="0" s:y="10" s:pid="in0" id="port_$procdff$125~ARST">
      <text x="-3" y="-4" class="inputPortLabel cell_$procdff$125">ARST</text>
    </g>
    <g transform="translate(0,30)" s:x="0" s:y="10" s:pid="in0" id="port_$procdff$125~CLK">
      <text x="-3" y="-4" class="inputPortLabel cell_$procdff$125">CLK</text>
    </g>
    <g transform="translate(0,50)" s:x="0" s:y="10" s:pid="in0" id="port_$procdff$125~D">
      <text x="-3" y="-4" class="inputPortLabel cell_$procdff$125">D</text>
    </g>
    <g transform="translate(30,10)" s:x="30" s:y="10" s:pid="out0" id="port_$procdff$125~Q">
      <text x="5" y="-4" style="fill:#000; stroke:none" class="cell_$procdff$125">Q</text>
    </g>
  </g>
  <g s:type="mux" transform="translate(1098,99.5)" s:width="20" s:height="40" id="cell_$procmux$101">
    <s:alias val="$pmux"/>
    <s:alias val="$mux"/>
    <s:alias val="$_MUX_"/>
    <path d="M0,0 L20,10 L20,30 L0,40 Z" class="cell_$procmux$101"/>
    <g s:x="0" s:y="10" s:pid="A"/>
    <g s:x="0" s:y="30" s:pid="B"/>
    <g s:x="10" s:y="35" s:pid="S"/>
    <g s:x="20" s:y="20" s:pid="Y"/>
  </g>
  <g s:type="eq" transform="translate(675,710)" s:width="25" s:height="25" id="cell_$procmux$102_CMP0">
    <s:alias val="$eq"/>
    <circle r="12.5" cx="12.5" cy="12.5" class="cell_$procmux$102_CMP0"/>
    <line x1="7.5" x2="17.5" y1="10" y2="10" class="cell_$procmux$102_CMP0"/>
    <line x1="7.5" x2="17.5" y1="15" y2="15" class="cell_$procmux$102_CMP0"/>
    <g s:x="3" s:y="5" s:pid="A"/>
    <g s:x="3" s:y="20" s:pid="B"/>
    <g s:x="25" s:y="12.5" s:pid="Y"/>
  </g>
  <g s:type="mux" transform="translate(784,119.5)" s:width="20" s:height="40" id="cell_$procmux$104">
    <s:alias val="$pmux"/>
    <s:alias val="$mux"/>
    <s:alias val="$_MUX_"/>
    <path d="M0,0 L20,10 L20,30 L0,40 Z" class="cell_$procmux$104"/>
    <g s:x="0" s:y="10" s:pid="A"/>
    <g s:x="0" s:y="30" s:pid="B"/>
    <g s:x="10" s:y="35" s:pid="S"/>
    <g s:x="20" s:y="20" s:pid="Y"/>
  </g>
  <g s:type="eq" transform="translate(675,504)" s:width="25" s:height="25" id="cell_$procmux$106_CMP0">
    <s:alias val="$eq"/>
    <circle r="12.5" cx="12.5" cy="12.5" class="cell_$procmux$106_CMP0"/>
    <line x1="7.5" x2="17.5" y1="10" y2="10" class="cell_$procmux$106_CMP0"/>
    <line x1="7.5" x2="17.5" y1="15" y2="15" class="cell_$procmux$106_CMP0"/>
    <g s:x="3" s:y="5" s:pid="A"/>
    <g s:x="3" s:y="20" s:pid="B"/>
    <g s:x="25" s:y="12.5" s:pid="Y"/>
  </g>
  <g s:type="mux" transform="translate(1196,89.5)" s:width="20" s:height="40" id="cell_$procmux$107">
    <s:alias val="$pmux"/>
    <s:alias val="$mux"/>
    <s:alias val="$_MUX_"/>
    <path d="M0,0 L20,10 L20,30 L0,40 Z" class="cell_$procmux$107"/>
    <g s:x="0" s:y="10" s:pid="A"/>
    <g s:x="0" s:y="30" s:pid="B"/>
    <g s:x="10" s:y="35" s:pid="S"/>
    <g s:x="20" s:y="20" s:pid="Y"/>
  </g>
  <g s:type="mux" transform="translate(678.3333333333333,1056.5)" s:width="20" s:height="40" id="cell_$procmux$109">
    <s:alias val="$pmux"/>
    <s:alias val="$mux"/>
    <s:alias val="$_MUX_"/>
    <path d="M0,0 L20,10 L20,30 L0,40 Z" class="cell_$procmux$109"/>
    <g s:x="0" s:y="10" s:pid="A"/>
    <g s:x="0" s:y="30" s:pid="B"/>
    <g s:x="10" s:y="35" s:pid="S"/>
    <g s:x="20" s:y="20" s:pid="Y"/>
  </g>
  <g s:type="mux" transform="translate(784,1015.5)" s:width="20" s:height="40" id="cell_$procmux$111">
    <s:alias val="$pmux"/>
    <s:alias val="$mux"/>
    <s:alias val="$_MUX_"/>
    <path d="M0,0 L20,10 L20,30 L0,40 Z" class="cell_$procmux$111"/>
    <g s:x="0" s:y="10" s:pid="A"/>
    <g s:x="0" s:y="30" s:pid="B"/>
    <g s:x="10" s:y="35" s:pid="S"/>
    <g s:x="20" s:y="20" s:pid="Y"/>
  </g>
  <g s:type="mux" transform="translate(961,1066.5)" s:width="20" s:height="40" id="cell_$procmux$113">
    <s:alias val="$pmux"/>
    <s:alias val="$mux"/>
    <s:alias val="$_MUX_"/>
    <path d="M0,0 L20,10 L20,30 L0,40 Z" class="cell_$procmux$113"/>
    <g s:x="0" s:y="10" s:pid="A"/>
    <g s:x="0" s:y="30" s:pid="B"/>
    <g s:x="10" s:y="35" s:pid="S"/>
    <g s:x="20" s:y="20" s:pid="Y"/>
  </g>
  <g s:type="mux" transform="translate(1098,272.5)" s:width="20" s:height="40" id="cell_$procmux$115">
    <s:alias val="$pmux"/>
    <s:alias val="$mux"/>
    <s:alias val="$_MUX_"/>
    <path d="M0,0 L20,10 L20,30 L0,40 Z" class="cell_$procmux$115"/>
    <g s:x="0" s:y="10" s:pid="A"/>
    <g s:x="0" s:y="30" s:pid="B"/>
    <g s:x="10" s:y="35" s:pid="S"/>
    <g s:x="20" s:y="20" s:pid="Y"/>
  </g>
  <g s:type="eq" transform="translate(782.3333333333334,740)" s:width="25" s:height="25" id="cell_$procmux$117_CMP0">
    <s:alias val="$eq"/>
    <circle r="12.5" cx="12.5" cy="12.5" class="cell_$procmux$117_CMP0"/>
    <line x1="7.5" x2="17.5" y1="10" y2="10" class="cell_$procmux$117_CMP0"/>
    <line x1="7.5" x2="17.5" y1="15" y2="15" class="cell_$procmux$117_CMP0"/>
    <g s:x="3" s:y="5" s:pid="A"/>
    <g s:x="3" s:y="20" s:pid="B"/>
    <g s:x="25" s:y="12.5" s:pid="Y"/>
  </g>
  <g s:type="mux" transform="translate(1196,262.5)" s:width="20" s:height="40" id="cell_$procmux$118">
    <s:alias val="$pmux"/>
    <s:alias val="$mux"/>
    <s:alias val="$_MUX_"/>
    <path d="M0,0 L20,10 L20,30 L0,40 Z" class="cell_$procmux$118"/>
    <g s:x="0" s:y="10" s:pid="A"/>
    <g s:x="0" s:y="30" s:pid="B"/>
    <g s:x="10" s:y="35" s:pid="S"/>
    <g s:x="20" s:y="20" s:pid="Y"/>
  </g>
  <g s:type="mux" transform="translate(961,853)" s:width="20" s:height="40" id="cell_$procmux$85">
    <s:alias val="$pmux"/>
    <s:alias val="$mux"/>
    <s:alias val="$_MUX_"/>
    <path d="M0,0 L20,10 L20,30 L0,40 Z" class="cell_$procmux$85"/>
    <g s:x="0" s:y="10" s:pid="A"/>
    <g s:x="0" s:y="30" s:pid="B"/>
    <g s:x="10" s:y="35" s:pid="S"/>
    <g s:x="20" s:y="20" s:pid="Y"/>
  </g>
  <g s:type="mux" transform="translate(1098,954.5)" s:width="20" s:height="40" id="cell_$procmux$87">
    <s:alias val="$pmux"/>
    <s:alias val="$mux"/>
    <s:alias val="$_MUX_"/>
    <path d="M0,0 L20,10 L20,30 L0,40 Z" class="cell_$procmux$87"/>
    <g s:x="0" s:y="10" s:pid="A"/>
    <g s:x="0" s:y="30" s:pid="B"/>
    <g s:x="10" s:y="35" s:pid="S"/>
    <g s:x="20" s:y="20" s:pid="Y"/>
  </g>
  <g s:type="mux" transform="translate(1196,944.5)" s:width="20" s:height="40" id="cell_$procmux$89">
    <s:alias val="$pmux"/>
    <s:alias val="$mux"/>
    <s:alias val="$_MUX_"/>
    <path d="M0,0 L20,10 L20,30 L0,40 Z" class="cell_$procmux$89"/>
    <g s:x="0" s:y="10" s:pid="A"/>
    <g s:x="0" s:y="30" s:pid="B"/>
    <g s:x="10" s:y="35" s:pid="S"/>
    <g s:x="20" s:y="20" s:pid="Y"/>
  </g>
  <g s:type="mux" transform="translate(1098,635)" s:width="20" s:height="40" id="cell_$procmux$91">
    <s:alias val="$pmux"/>
    <s:alias val="$mux"/>
    <s:alias val="$_MUX_"/>
    <path d="M0,0 L20,10 L20,30 L0,40 Z" class="cell_$procmux$91"/>
    <g s:x="0" s:y="10" s:pid="A"/>
    <g s:x="0" s:y="30" s:pid="B"/>
    <g s:x="10" s:y="35" s:pid="S"/>
    <g s:x="20" s:y="20" s:pid="Y"/>
  </g>
  <g s:type="mux" transform="translate(784,615)" s:width="20" s:height="40" id="cell_$procmux$94">
    <s:alias val="$pmux"/>
    <s:alias val="$mux"/>
    <s:alias val="$_MUX_"/>
    <path d="M0,0 L20,10 L20,30 L0,40 Z" class="cell_$procmux$94"/>
    <g s:x="0" s:y="10" s:pid="A"/>
    <g s:x="0" s:y="30" s:pid="B"/>
    <g s:x="10" s:y="35" s:pid="S"/>
    <g s:x="20" s:y="20" s:pid="Y"/>
  </g>
  <g s:type="not" transform="translate(783.5,964.5)" s:width="30" s:height="20" id="cell_$procmux$98_CMP0">
    <s:alias val="$_NOT_"/>
    <s:alias val="$not"/>
    <s:alias val="$logic_not"/>
    <path d="M0,0 L0,20 L20,10 Z" class="cell_$procmux$98_CMP0"/>
    <circle cx="23" cy="10" r="3" class="cell_$procmux$98_CMP0"/>
    <g s:x="0" s:y="10" s:pid="A"/>
    <g s:x="25" s:y="10" s:pid="Y"/>
  </g>
  <g s:type="mux" transform="translate(1196,625)" s:width="20" s:height="40" id="cell_$procmux$99">
    <s:alias val="$pmux"/>
    <s:alias val="$mux"/>
    <s:alias val="$_MUX_"/>
    <path d="M0,0 L20,10 L20,30 L0,40 Z" class="cell_$procmux$99"/>
    <g s:x="0" s:y="10" s:pid="A"/>
    <g s:x="0" s:y="30" s:pid="B"/>
    <g s:x="10" s:y="35" s:pid="S"/>
    <g s:x="20" s:y="20" s:pid="Y"/>
  </g>
  <g s:type="inputExt" transform="translate(125,22)" s:width="30" s:height="20" id="cell_iDATA">
    <text x="15" y="-4" class="nodelabel cell_iDATA" s:attribute="ref">iDATA</text>
    <s:alias val="$_inputExt_"/>
    <path d="M0,0 L0,20 L15,20 L30,10 L15,0 Z" class="cell_iDATA"/>
    <g s:x="28" s:y="10" s:pid="Y"/>
  </g>
  <g s:type="inputExt" transform="translate(12,22)" s:width="30" s:height="20" id="cell_iRS">
    <text x="15" y="-4" class="nodelabel cell_iRS" s:attribute="ref">iRS</text>
    <s:alias val="$_inputExt_"/>
    <path d="M0,0 L0,20 L15,20 L30,10 L15,0 Z" class="cell_iRS"/>
    <g s:x="28" s:y="10" s:pid="Y"/>
  </g>
  <g s:type="inputExt" transform="translate(250,946.5)" s:width="30" s:height="20" id="cell_iStart">
    <text x="15" y="-4" class="nodelabel cell_iStart" s:attribute="ref">iStart</text>
    <s:alias val="$_inputExt_"/>
    <path d="M0,0 L0,20 L15,20 L30,10 L15,0 Z" class="cell_iStart"/>
    <g s:x="28" s:y="10" s:pid="Y"/>
  </g>
  <g s:type="outputExt" transform="translate(1196,1159)" s:width="30" s:height="20" id="cell_oDone">
    <text x="15" y="-4" class="nodelabel cell_oDone" s:attribute="ref">oDone</text>
    <s:alias val="$_outputExt_"/>
    <path d="M30,0 L30,20 L15,20 L0,10 L15,0 Z" class="cell_oDone"/>
    <g s:x="0" s:y="10" s:pid="A"/>
  </g>
  <g s:type="inputExt" transform="translate(250,830.5)" s:width="30" s:height="20" id="cell_iCLK">
    <text x="15" y="-4" class="nodelabel cell_iCLK" s:attribute="ref">iCLK</text>
    <s:alias val="$_inputExt_"/>
    <path d="M0,0 L0,20 L15,20 L30,10 L15,0 Z" class="cell_iCLK"/>
    <g s:x="28" s:y="10" s:pid="Y"/>
  </g>
  <g s:type="inputExt" transform="translate(250,765.5)" s:width="30" s:height="20" id="cell_iRST_N">
    <text x="15" y="-4" class="nodelabel cell_iRST_N" s:attribute="ref">iRST_N</text>
    <s:alias val="$_inputExt_"/>
    <path d="M0,0 L0,20 L15,20 L30,10 L15,0 Z" class="cell_iRST_N"/>
    <g s:x="28" s:y="10" s:pid="Y"/>
  </g>
  <g s:type="outputExt" transform="translate(190,22)" s:width="30" s:height="20" id="cell_LCD_DATA">
    <text x="15" y="-4" class="nodelabel cell_LCD_DATA" s:attribute="ref">LCD_DATA</text>
    <s:alias val="$_outputExt_"/>
    <path d="M30,0 L30,20 L15,20 L0,10 L15,0 Z" class="cell_LCD_DATA"/>
    <g s:x="0" s:y="10" s:pid="A"/>
  </g>
  <g s:type="outputExt" transform="translate(1196,1232.5)" s:width="30" s:height="20" id="cell_LCD_RW">
    <text x="15" y="-4" class="nodelabel cell_LCD_RW" s:attribute="ref">LCD_RW</text>
    <s:alias val="$_outputExt_"/>
    <path d="M30,0 L30,20 L15,20 L0,10 L15,0 Z" class="cell_LCD_RW"/>
    <g s:x="0" s:y="10" s:pid="A"/>
  </g>
  <g s:type="outputExt" transform="translate(1196,202.5)" s:width="30" s:height="20" id="cell_LCD_EN">
    <text x="15" y="-4" class="nodelabel cell_LCD_EN" s:attribute="ref">LCD_EN</text>
    <s:alias val="$_outputExt_"/>
    <path d="M30,0 L30,20 L15,20 L0,10 L15,0 Z" class="cell_LCD_EN"/>
    <g s:x="0" s:y="10" s:pid="A"/>
  </g>
  <g s:type="outputExt" transform="translate(77,22)" s:width="30" s:height="20" id="cell_LCD_RS">
    <text x="15" y="-4" class="nodelabel cell_LCD_RS" s:attribute="ref">LCD_RS</text>
    <s:alias val="$_outputExt_"/>
    <path d="M30,0 L30,20 L15,20 L0,10 L15,0 Z" class="cell_LCD_RS"/>
    <g s:x="0" s:y="10" s:pid="A"/>
  </g>
  <g s:type="constant" transform="translate(458,745.5)" s:width="30" s:height="20" id="cell_1">
    <text x="15" y="-4" class="nodelabel cell_1" s:attribute="ref">1</text>
    <s:alias val="$_constant_"/>
    <rect width="30" height="20" class="cell_1"/>
    <g s:x="30" s:y="10" s:pid="Y"/>
  </g>
  <g s:type="constant" transform="translate(553,448)" s:width="30" s:height="20" id="cell_10000">
    <text x="15" y="-4" class="nodelabel cell_10000" s:attribute="ref">0x10</text>
    <s:alias val="$_constant_"/>
    <rect width="30" height="20" class="cell_10000"/>
    <g s:x="30" s:y="10" s:pid="Y"/>
  </g>
  <g s:type="constant" transform="translate(775,64.5)" s:width="30" s:height="20" id="cell_00000">
    <text x="15" y="-4" class="nodelabel cell_00000" s:attribute="ref">0x0</text>
    <s:alias val="$_constant_"/>
    <rect width="30" height="20" class="cell_00000"/>
    <g s:x="30" s:y="10" s:pid="Y"/>
  </g>
  <g s:type="constant" transform="translate(553,569.5)" s:width="30" s:height="20" id="cell_11">
    <text x="15" y="-4" class="nodelabel cell_11" s:attribute="ref">11</text>
    <s:alias val="$_constant_"/>
    <rect width="30" height="20" class="cell_11"/>
    <g s:x="30" s:y="10" s:pid="Y"/>
  </g>
  <g s:type="constant" transform="translate(553,383)" s:width="30" s:height="20" id="cell_10">
    <text x="15" y="-4" class="nodelabel cell_10" s:attribute="ref">10</text>
    <s:alias val="$_constant_"/>
    <rect width="30" height="20" class="cell_10"/>
    <g s:x="30" s:y="10" s:pid="Y"/>
  </g>
  <g s:type="constant" transform="translate(553,1076.5)" s:width="30" s:height="20" id="cell_0">
    <text x="15" y="-4" class="nodelabel cell_0" s:attribute="ref">0</text>
    <s:alias val="$_constant_"/>
    <rect width="30" height="20" class="cell_0"/>
    <g s:x="30" s:y="10" s:pid="Y"/>
  </g>
  <g s:type="constant" transform="translate(775,560)" s:width="30" s:height="20" id="cell_00">
    <text x="15" y="-4" class="nodelabel cell_00" s:attribute="ref">00</text>
    <s:alias val="$_constant_"/>
    <rect width="30" height="20" class="cell_00"/>
    <g s:x="30" s:y="10" s:pid="Y"/>
  </g>
  <g s:type="constant" transform="translate(775,685)" s:width="30" s:height="20" id="cell_0110">
    <text x="15" y="-4" class="nodelabel cell_0110" s:attribute="ref">0x6</text>
    <s:alias val="$_constant_"/>
    <rect width="30" height="20" class="cell_0110"/>
    <g s:x="30" s:y="10" s:pid="Y"/>
  </g>
  <g s:type="join" transform="translate(469,886)" s:width="4" s:height="40" id="cell_$join$,11,26,">
    <rect width="5" height="40" class="splitjoinBody" s:generic="body"/>
    <s:alias val="$_join_"/>
    <g s:x="5" s:y="20" s:pid="out"/>
    <g transform="translate(0,10)" s:x="0" s:y="10" s:pid="in0">
      <text x="-3" y="-4" class="inputPortLabel">0</text>
    </g>
    <g transform="translate(0,30)" s:x="0" s:y="10" s:pid="in0">
      <text x="-3" y="-4" class="inputPortLabel">1</text>
    </g>
  </g>
  <g s:type="join" transform="translate(966.3333333333334,109)" s:width="4" s:height="40" id="cell_$join$,72,73,74,75,76,42,43,44,45,46,">
    <rect width="5" height="40" class="splitjoinBody" s:generic="body"/>
    <s:alias val="$_join_"/>
    <g s:x="5" s:y="20" s:pid="out"/>
    <g transform="translate(0,10)" s:x="0" s:y="10" s:pid="in0">
      <text x="-3" y="-4" class="inputPortLabel">0:4</text>
    </g>
    <g transform="translate(0,30)" s:x="0" s:y="10" s:pid="in0">
      <text x="-3" y="-4" class="inputPortLabel">5:9</text>
    </g>
  </g>
  <g s:type="join" transform="translate(789.3333333333334,486)" s:width="4" s:height="40" id="cell_$join$,47,48,">
    <rect width="5" height="40" class="splitjoinBody" s:generic="body"/>
    <s:alias val="$_join_"/>
    <g s:x="5" s:y="20" s:pid="out"/>
    <g transform="translate(0,10)" s:x="0" s:y="10" s:pid="in0">
      <text x="-3" y="-4" class="inputPortLabel">0</text>
    </g>
    <g transform="translate(0,30)" s:x="0" s:y="10" s:pid="in0">
      <text x="-3" y="-4" class="inputPortLabel">1</text>
    </g>
  </g>
  <g s:type="join" transform="translate(966.3333333333334,302)" s:width="4" s:height="40" id="cell_$join$,47,56,">
    <rect width="5" height="40" class="splitjoinBody" s:generic="body"/>
    <s:alias val="$_join_"/>
    <g s:x="5" s:y="20" s:pid="out"/>
    <g transform="translate(0,10)" s:x="0" s:y="10" s:pid="in0">
      <text x="-3" y="-4" class="inputPortLabel">0</text>
    </g>
    <g transform="translate(0,30)" s:x="0" s:y="10" s:pid="in0">
      <text x="-3" y="-4" class="inputPortLabel">1</text>
    </g>
  </g>
  <g s:type="join" transform="translate(962.75,644.5)" s:width="4" s:height="40" id="cell_$join$,88,89,60,61,90,91,92,93,">
    <rect width="5" height="60" class="splitjoinBody" s:generic="body"/>
    <s:alias val="$_join_"/>
    <g s:x="5" s:y="20" s:pid="out"/>
    <g transform="translate(0,10)" s:x="0" s:y="10" s:pid="in0">
      <text x="-3" y="-4" class="inputPortLabel">0:1</text>
    </g>
    <g transform="translate(0,30)" s:x="0" s:y="10" s:pid="in0">
      <text x="-3" y="-4" class="inputPortLabel">2:3</text>
    </g>
    <g transform="translate(0,50)" s:x="0" s:y="10" s:pid="in0">
      <text x="-3" y="-4" class="inputPortLabel">4:7</text>
    </g>
  </g>
  <g s:type="join" transform="translate(962.75,924)" s:width="4" s:height="40" id="cell_$join$,47,48,56,62,">
    <rect width="5" height="60" class="splitjoinBody" s:generic="body"/>
    <s:alias val="$_join_"/>
    <g s:x="5" s:y="20" s:pid="out"/>
    <g transform="translate(0,10)" s:x="0" s:y="10" s:pid="in0">
      <text x="-3" y="-4" class="inputPortLabel">0:1</text>
    </g>
    <g transform="translate(0,30)" s:x="0" s:y="10" s:pid="in0">
      <text x="-3" y="-4" class="inputPortLabel">2</text>
    </g>
    <g transform="translate(0,50)" s:x="0" s:y="10" s:pid="in0">
      <text x="-3" y="-4" class="inputPortLabel">3</text>
    </g>
  </g>
  <line x1="584" x2="645" y1="43.5" y2="43.5" class="net_16,17,18,19,20"/>
  <line x1="645" x2="645" y1="43.5" y2="142" class="net_16,17,18,19,20"/>
  <circle cx="645" cy="43.5" r="2" style="fill:#000" class="net_16,17,18,19,20"/>
  <circle cx="645" cy="142" r="2" style="fill:#000" class="net_16,17,18,19,20"/>
  <line x1="645" x2="678" y1="142" y2="142" class="net_16,17,18,19,20"/>
  <line x1="584" x2="645" y1="43.5" y2="43.5" class="net_16,17,18,19,20"/>
  <line x1="645" x2="645" y1="43.5" y2="443" class="net_16,17,18,19,20"/>
  <line x1="645" x2="678" y1="443" y2="443" class="net_16,17,18,19,20"/>
  <line x1="584" x2="1034" y1="43.5" y2="43.5" class="net_16,17,18,19,20"/>
  <line x1="1034" x2="1034" y1="43.5" y2="109.5" class="net_16,17,18,19,20"/>
  <circle cx="1034" cy="43.5" r="2" style="fill:#000" class="net_16,17,18,19,20"/>
  <line x1="1034" x2="1098" y1="109.5" y2="109.5" class="net_16,17,18,19,20"/>
  <line x1="584" x2="710" y1="43.5" y2="43.5" class="net_16,17,18,19,20"/>
  <line x1="710" x2="710" y1="43.5" y2="129.5" class="net_16,17,18,19,20"/>
  <circle cx="710" cy="43.5" r="2" style="fill:#000" class="net_16,17,18,19,20"/>
  <line x1="710" x2="784" y1="129.5" y2="129.5" class="net_16,17,18,19,20"/>
  <line x1="584" x2="1171" y1="43.5" y2="43.5" class="net_16,17,18,19,20"/>
  <line x1="1171" x2="1171" y1="43.5" y2="99.5" class="net_16,17,18,19,20"/>
  <line x1="1171" x2="1196" y1="99.5" y2="99.5" class="net_16,17,18,19,20"/>
  <line x1="488" x2="508" y1="755.5" y2="755.5" class="net_65"/>
  <line x1="508" x2="508" y1="755.5" y2="12" class="net_65"/>
  <line x1="508" x2="655" y1="12" y2="12" class="net_65"/>
  <line x1="655" x2="655" y1="12" y2="157" class="net_65"/>
  <circle cx="508" cy="755.5" r="2" style="fill:#000" class="net_65"/>
  <line x1="655" x2="678" y1="157" y2="157" class="net_65"/>
  <line x1="488" x2="508" y1="755.5" y2="755.5" class="net_65"/>
  <line x1="508" x2="508" y1="755.5" y2="921.5" class="net_65"/>
  <circle cx="508" cy="921.5" r="2" style="fill:#000" class="net_65"/>
  <line x1="508" x2="563.3333333333333" y1="921.5" y2="921.5" class="net_65"/>
  <line x1="488" x2="508" y1="755.5" y2="755.5" class="net_65"/>
  <line x1="508" x2="508" y1="755.5" y2="1045.5" class="net_65"/>
  <line x1="508" x2="784" y1="1045.5" y2="1045.5" class="net_65"/>
  <line x1="488" x2="508" y1="755.5" y2="755.5" class="net_65"/>
  <line x1="508" x2="508" y1="755.5" y2="760" class="net_65"/>
  <circle cx="508" cy="760" r="2" style="fill:#000" class="net_65"/>
  <line x1="508" x2="785.3333333333334" y1="760" y2="760" class="net_65"/>
  <line x1="488" x2="508" y1="755.5" y2="755.5" class="net_65"/>
  <line x1="508" x2="508" y1="755.5" y2="883" class="net_65"/>
  <circle cx="508" cy="883" r="2" style="fill:#000" class="net_65"/>
  <line x1="508" x2="961" y1="883" y2="883" class="net_65"/>
  <line x1="475" x2="563.3333333333333" y1="906.5" y2="906.5" class="net_11,26"/>
  <line x1="583" x2="678" y1="458" y2="458" class="net_67,68,69,70,71"/>
  <line x1="278" x2="316" y1="775.5" y2="775.5" class="net_14"/>
  <line x1="316" x2="316" y1="775.5" y2="212.5" class="net_14"/>
  <circle cx="316" cy="775.5" r="2" style="fill:#000" class="net_14"/>
  <circle cx="316" cy="212.5" r="2" style="fill:#000" class="net_14"/>
  <line x1="316" x2="952" y1="212.5" y2="212.5" class="net_14"/>
  <line x1="278" x2="316" y1="775.5" y2="775.5" class="net_14"/>
  <line x1="316" x2="316" y1="775.5" y2="1169" class="net_14"/>
  <line x1="316" x2="1089" y1="1169" y2="1169" class="net_14"/>
  <line x1="278" x2="316" y1="775.5" y2="775.5" class="net_14"/>
  <line x1="316" x2="316" y1="775.5" y2="43.5" class="net_14"/>
  <line x1="316" x2="553" y1="43.5" y2="43.5" class="net_14"/>
  <line x1="278" x2="316" y1="775.5" y2="775.5" class="net_14"/>
  <line x1="316" x2="316" y1="775.5" y2="645" class="net_14"/>
  <circle cx="316" cy="645" r="2" style="fill:#000" class="net_14"/>
  <line x1="316" x2="553" y1="645" y2="645" class="net_14"/>
  <line x1="278" x2="316" y1="775.5" y2="775.5" class="net_14"/>
  <line x1="316" x2="316" y1="775.5" y2="916.5" class="net_14"/>
  <circle cx="316" cy="916.5" r="2" style="fill:#000" class="net_14"/>
  <line x1="316" x2="351" y1="916.5" y2="916.5" class="net_14"/>
  <line x1="278" x2="710" y1="775.5" y2="775.5" class="net_14"/>
  <line x1="710" x2="710" y1="775.5" y2="820.5" class="net_14"/>
  <line x1="710" x2="775" y1="820.5" y2="820.5" class="net_14"/>
  <line x1="278" x2="306" y1="840.5" y2="840.5" class="net_13"/>
  <line x1="306" x2="306" y1="840.5" y2="232.5" class="net_13"/>
  <circle cx="306" cy="840.5" r="2" style="fill:#000" class="net_13"/>
  <circle cx="306" cy="232.5" r="2" style="fill:#000" class="net_13"/>
  <line x1="306" x2="952" y1="232.5" y2="232.5" class="net_13"/>
  <line x1="278" x2="306" y1="840.5" y2="840.5" class="net_13"/>
  <line x1="306" x2="306" y1="840.5" y2="1189" class="net_13"/>
  <line x1="306" x2="1089" y1="1189" y2="1189" class="net_13"/>
  <line x1="278" x2="306" y1="840.5" y2="840.5" class="net_13"/>
  <line x1="306" x2="306" y1="840.5" y2="63.5" class="net_13"/>
  <line x1="306" x2="553" y1="63.5" y2="63.5" class="net_13"/>
  <line x1="278" x2="306" y1="840.5" y2="840.5" class="net_13"/>
  <line x1="306" x2="306" y1="840.5" y2="665" class="net_13"/>
  <circle cx="306" cy="665" r="2" style="fill:#000" class="net_13"/>
  <line x1="306" x2="553" y1="665" y2="665" class="net_13"/>
  <line x1="278" x2="306" y1="840.5" y2="840.5" class="net_13"/>
  <line x1="306" x2="306" y1="840.5" y2="936.5" class="net_13"/>
  <circle cx="306" cy="936.5" r="2" style="fill:#000" class="net_13"/>
  <line x1="306" x2="351" y1="936.5" y2="936.5" class="net_13"/>
  <line x1="278" x2="775" y1="840.5" y2="840.5" class="net_13"/>
  <line x1="1216" x2="1262" y1="282.5" y2="282.5" class="net_29"/>
  <line x1="1262" x2="1262" y1="282.5" y2="831.5" class="net_29"/>
  <line x1="1262" x2="907" y1="831.5" y2="831.5" class="net_29"/>
  <line x1="907" x2="907" y1="831.5" y2="252.5" class="net_29"/>
  <line x1="907" x2="952" y1="252.5" y2="252.5" class="net_29"/>
  <line x1="981" x2="1034" y1="1086.5" y2="1086.5" class="net_30"/>
  <line x1="1034" x2="1034" y1="1086.5" y2="1209" class="net_30"/>
  <line x1="1034" x2="1089" y1="1209" y2="1209" class="net_30"/>
  <line x1="1216" x2="1272" y1="109.5" y2="109.5" class="net_31,32,33,34,35"/>
  <line x1="1272" x2="1272" y1="109.5" y2="363" class="net_31,32,33,34,35"/>
  <line x1="1272" x2="518" y1="363" y2="363" class="net_31,32,33,34,35"/>
  <line x1="518" x2="518" y1="363" y2="83.5" class="net_31,32,33,34,35"/>
  <line x1="518" x2="553" y1="83.5" y2="83.5" class="net_31,32,33,34,35"/>
  <line x1="1216" x2="1252" y1="645" y2="645" class="net_36,37"/>
  <line x1="1252" x2="1252" y1="645" y2="1126.5" class="net_36,37"/>
  <line x1="1252" x2="498" y1="1126.5" y2="1126.5" class="net_36,37"/>
  <line x1="498" x2="498" y1="1126.5" y2="685" class="net_36,37"/>
  <line x1="498" x2="553" y1="685" y2="685" class="net_36,37"/>
  <line x1="278" x2="351" y1="956.5" y2="956.5" class="net_11"/>
  <line x1="278" x2="296" y1="956.5" y2="956.5" class="net_11"/>
  <line x1="296" x2="296" y1="956.5" y2="885" class="net_11"/>
  <line x1="296" x2="433" y1="885" y2="885" class="net_11"/>
  <line x1="433" x2="433" y1="885" y2="896.5" class="net_11"/>
  <circle cx="296" cy="956.5" r="2" style="fill:#000" class="net_11"/>
  <line x1="433" x2="469" y1="896.5" y2="896.5" class="net_11"/>
  <line x1="1216" x2="1242" y1="964.5" y2="964.5" class="net_40"/>
  <line x1="1242" x2="1242" y1="964.5" y2="1137.5" class="net_40"/>
  <line x1="1242" x2="710" y1="1137.5" y2="1137.5" class="net_40"/>
  <line x1="710" x2="710" y1="1137.5" y2="860.5" class="net_40"/>
  <line x1="710" x2="775" y1="860.5" y2="860.5" class="net_40"/>
  <line x1="972.3333333333334" x2="1098" y1="129.5" y2="129.5" class="net_72,73,74,75,76,42,43,44,45,46"/>
  <line x1="795.3333333333334" x2="867" y1="506.5" y2="506.5" class="net_47,48"/>
  <line x1="867" x2="867" y1="506.5" y2="170" class="net_47,48"/>
  <line x1="867" x2="1054" y1="170" y2="170" class="net_47,48"/>
  <line x1="1054" x2="1054" y1="170" y2="262.5" class="net_47,48"/>
  <line x1="1054" x2="1108" y1="262.5" y2="262.5" class="net_47,48"/>
  <circle cx="867" cy="506.5" r="2" style="fill:#000" class="net_47,48"/>
  <line x1="1108" x2="1108" y1="262.5" y2="134.5" class="net_47,48"/>
  <line x1="795.3333333333334" x2="867" y1="506.5" y2="506.5" class="net_47,48"/>
  <line x1="867" x2="867" y1="506.5" y2="934.5" class="net_47,48"/>
  <line x1="867" x2="962.75" y1="934.5" y2="934.5" class="net_47,48"/>
  <line x1="584" x2="655" y1="645" y2="645" class="net_38,39"/>
  <line x1="655" x2="655" y1="645" y2="715" class="net_38,39"/>
  <circle cx="655" cy="645" r="2" style="fill:#000" class="net_38,39"/>
  <circle cx="655" cy="715" r="2" style="fill:#000" class="net_38,39"/>
  <line x1="655" x2="678" y1="715" y2="715" class="net_38,39"/>
  <line x1="584" x2="655" y1="645" y2="645" class="net_38,39"/>
  <line x1="655" x2="655" y1="645" y2="509" class="net_38,39"/>
  <circle cx="655" cy="509" r="2" style="fill:#000" class="net_38,39"/>
  <line x1="655" x2="678" y1="509" y2="509" class="net_38,39"/>
  <line x1="584" x2="655" y1="645" y2="645" class="net_38,39"/>
  <line x1="655" x2="655" y1="645" y2="745" class="net_38,39"/>
  <circle cx="655" cy="745" r="2" style="fill:#000" class="net_38,39"/>
  <line x1="655" x2="785.3333333333334" y1="745" y2="745" class="net_38,39"/>
  <line x1="584" x2="655" y1="645" y2="645" class="net_38,39"/>
  <line x1="655" x2="655" y1="645" y2="539" class="net_38,39"/>
  <line x1="655" x2="1034" y1="539" y2="539" class="net_38,39"/>
  <line x1="1034" x2="1034" y1="539" y2="645" class="net_38,39"/>
  <circle cx="655" cy="539" r="2" style="fill:#000" class="net_38,39"/>
  <circle cx="1034" cy="539" r="2" style="fill:#000" class="net_38,39"/>
  <line x1="1034" x2="1098" y1="645" y2="645" class="net_38,39"/>
  <line x1="584" x2="784" y1="645" y2="645" class="net_38,39"/>
  <line x1="584" x2="655" y1="645" y2="645" class="net_38,39"/>
  <line x1="655" x2="655" y1="645" y2="974.5" class="net_38,39"/>
  <line x1="655" x2="783.5" y1="974.5" y2="974.5" class="net_38,39"/>
  <line x1="584" x2="655" y1="645" y2="645" class="net_38,39"/>
  <line x1="655" x2="655" y1="645" y2="473" class="net_38,39"/>
  <line x1="655" x2="857" y1="473" y2="473" class="net_38,39"/>
  <line x1="857" x2="857" y1="473" y2="539" class="net_38,39"/>
  <line x1="857" x2="1171" y1="539" y2="539" class="net_38,39"/>
  <line x1="1171" x2="1171" y1="539" y2="635" class="net_38,39"/>
  <circle cx="857" cy="539" r="2" style="fill:#000" class="net_38,39"/>
  <line x1="1171" x2="1196" y1="635" y2="635" class="net_38,39"/>
  <line x1="583" x2="665" y1="579.5" y2="579.5" class="net_77,78"/>
  <line x1="665" x2="665" y1="579.5" y2="730" class="net_77,78"/>
  <circle cx="665" cy="579.5" r="2" style="fill:#000" class="net_77,78"/>
  <line x1="665" x2="678" y1="730" y2="730" class="net_77,78"/>
  <line x1="583" x2="740" y1="579.5" y2="579.5" class="net_77,78"/>
  <line x1="740" x2="740" y1="579.5" y2="625" class="net_77,78"/>
  <line x1="740" x2="784" y1="625" y2="625" class="net_77,78"/>
  <line x1="700" x2="784" y1="149.5" y2="149.5" class="net_21,22,23,24,25"/>
  <line x1="700" x2="710" y1="450.5" y2="450.5" class="net_28"/>
  <line x1="710" x2="710" y1="450.5" y2="171" class="net_28"/>
  <line x1="710" x2="794" y1="171" y2="171" class="net_28"/>
  <circle cx="710" cy="450.5" r="2" style="fill:#000" class="net_28"/>
  <line x1="794" x2="794" y1="171" y2="154.5" class="net_28"/>
  <line x1="700" x2="710" y1="450.5" y2="450.5" class="net_28"/>
  <line x1="710" x2="710" y1="450.5" y2="665" class="net_28"/>
  <line x1="710" x2="794" y1="665" y2="665" class="net_28"/>
  <line x1="794" x2="794" y1="665" y2="650" class="net_28"/>
  <line x1="583" x2="635" y1="393" y2="393" class="net_79,80"/>
  <line x1="635" x2="635" y1="393" y2="524" class="net_79,80"/>
  <circle cx="635" cy="393" r="2" style="fill:#000" class="net_79,80"/>
  <line x1="635" x2="678" y1="524" y2="524" class="net_79,80"/>
  <line x1="583" x2="635" y1="393" y2="393" class="net_79,80"/>
  <line x1="635" x2="635" y1="393" y2="181" class="net_79,80"/>
  <line x1="635" x2="1034" y1="181" y2="181" class="net_79,80"/>
  <line x1="1034" x2="1034" y1="181" y2="302.5" class="net_79,80"/>
  <line x1="1034" x2="1098" y1="302.5" y2="302.5" class="net_79,80"/>
  <line x1="1118" x2="1196" y1="119.5" y2="119.5" class="net_49,50,51,52,53"/>
  <line x1="806" x2="897" y1="820.5" y2="820.5" class="net_41"/>
  <line x1="897" x2="897" y1="820.5" y2="159" class="net_41"/>
  <line x1="897" x2="1206" y1="159" y2="159" class="net_41"/>
  <circle cx="897" cy="820.5" r="2" style="fill:#000" class="net_41"/>
  <line x1="1206" x2="1206" y1="159" y2="124.5" class="net_41"/>
  <line x1="806" x2="897" y1="820.5" y2="820.5" class="net_41"/>
  <line x1="897" x2="897" y1="820.5" y2="1116.5" class="net_41"/>
  <line x1="897" x2="971" y1="1116.5" y2="1116.5" class="net_41"/>
  <line x1="971" x2="971" y1="1116.5" y2="1101.5" class="net_41"/>
  <line x1="806" x2="897" y1="820.5" y2="820.5" class="net_41"/>
  <line x1="897" x2="897" y1="820.5" y2="352" class="net_41"/>
  <line x1="897" x2="1206" y1="352" y2="352" class="net_41"/>
  <circle cx="897" cy="352" r="2" style="fill:#000" class="net_41"/>
  <line x1="1206" x2="1206" y1="352" y2="297.5" class="net_41"/>
  <line x1="806" x2="897" y1="820.5" y2="820.5" class="net_41"/>
  <line x1="897" x2="897" y1="820.5" y2="863" class="net_41"/>
  <circle cx="897" cy="863" r="2" style="fill:#000" class="net_41"/>
  <line x1="897" x2="961" y1="863" y2="863" class="net_41"/>
  <line x1="806" x2="897" y1="820.5" y2="820.5" class="net_41"/>
  <line x1="897" x2="897" y1="820.5" y2="1015.5" class="net_41"/>
  <line x1="897" x2="1206" y1="1015.5" y2="1015.5" class="net_41"/>
  <circle cx="897" cy="1015.5" r="2" style="fill:#000" class="net_41"/>
  <line x1="1206" x2="1206" y1="1015.5" y2="979.5" class="net_41"/>
  <line x1="806" x2="1206" y1="820.5" y2="820.5" class="net_41"/>
  <line x1="1206" x2="1206" y1="820.5" y2="660" class="net_41"/>
  <line x1="1120" x2="1171" y1="1169" y2="1169" class="net_12"/>
  <line x1="1171" x2="1171" y1="1169" y2="1231.5" class="net_12"/>
  <line x1="1171" x2="665" y1="1231.5" y2="1231.5" class="net_12"/>
  <line x1="665" x2="665" y1="1231.5" y2="1066.5" class="net_12"/>
  <circle cx="1171" cy="1169" r="2" style="fill:#000" class="net_12"/>
  <line x1="665" x2="678.3333333333333" y1="1066.5" y2="1066.5" class="net_12"/>
  <line x1="1120" x2="1196" y1="1169" y2="1169" class="net_12"/>
  <line x1="583" x2="678.3333333333333" y1="1086.5" y2="1086.5" class="net_81"/>
  <line x1="583" x2="635" y1="1086.5" y2="1086.5" class="net_81"/>
  <line x1="635" x2="635" y1="1086.5" y2="903" class="net_81"/>
  <line x1="635" x2="1034" y1="903" y2="903" class="net_81"/>
  <line x1="1034" x2="1034" y1="903" y2="984.5" class="net_81"/>
  <circle cx="635" cy="1086.5" r="2" style="fill:#000" class="net_81"/>
  <line x1="1034" x2="1098" y1="984.5" y2="984.5" class="net_81"/>
  <line x1="583" x2="635" y1="1086.5" y2="1086.5" class="net_81"/>
  <line x1="635" x2="635" y1="1086.5" y2="1242.5" class="net_81"/>
  <line x1="635" x2="1196" y1="1242.5" y2="1242.5" class="net_81"/>
  <line x1="585.3333333333333" x2="645" y1="914" y2="914" class="net_27"/>
  <line x1="645" x2="645" y1="914" y2="1106.5" class="net_27"/>
  <line x1="645" x2="688.3333333333333" y1="1106.5" y2="1106.5" class="net_27"/>
  <circle cx="645" cy="914" r="2" style="fill:#000" class="net_27"/>
  <line x1="688.3333333333333" x2="688.3333333333333" y1="1106.5" y2="1091.5" class="net_27"/>
  <line x1="585.3333333333333" x2="971" y1="914" y2="914" class="net_27"/>
  <line x1="971" x2="971" y1="914" y2="888" class="net_27"/>
  <line x1="698.3333333333333" x2="720" y1="1076.5" y2="1076.5" class="net_54"/>
  <line x1="720" x2="720" y1="1076.5" y2="1025.5" class="net_54"/>
  <circle cx="720" cy="1076.5" r="2" style="fill:#000" class="net_54"/>
  <line x1="720" x2="784" y1="1025.5" y2="1025.5" class="net_54"/>
  <line x1="698.3333333333333" x2="961" y1="1076.5" y2="1076.5" class="net_54"/>
  <line x1="700" x2="730" y1="722.5" y2="722.5" class="net_47"/>
  <line x1="730" x2="730" y1="722.5" y2="1066.5" class="net_47"/>
  <line x1="730" x2="794" y1="1066.5" y2="1066.5" class="net_47"/>
  <circle cx="730" cy="722.5" r="2" style="fill:#000" class="net_47"/>
  <line x1="794" x2="794" y1="1066.5" y2="1050.5" class="net_47"/>
  <line x1="700" x2="730" y1="722.5" y2="722.5" class="net_47"/>
  <line x1="730" x2="730" y1="722.5" y2="1004.5" class="net_47"/>
  <line x1="730" x2="1108" y1="1004.5" y2="1004.5" class="net_47"/>
  <circle cx="730" cy="1004.5" r="2" style="fill:#000" class="net_47"/>
  <line x1="1108" x2="1108" y1="1004.5" y2="989.5" class="net_47"/>
  <line x1="700" x2="730" y1="722.5" y2="722.5" class="net_47"/>
  <line x1="730" x2="730" y1="722.5" y2="496.5" class="net_47"/>
  <circle cx="730" cy="496.5" r="2" style="fill:#000" class="net_47"/>
  <line x1="730" x2="789.3333333333334" y1="496.5" y2="496.5" class="net_47"/>
  <line x1="700" x2="730" y1="722.5" y2="722.5" class="net_47"/>
  <line x1="730" x2="730" y1="722.5" y2="312.5" class="net_47"/>
  <line x1="730" x2="966.3333333333334" y1="312.5" y2="312.5" class="net_47"/>
  <line x1="804" x2="907" y1="1035.5" y2="1035.5" class="net_55"/>
  <line x1="907" x2="907" y1="1035.5" y2="1096.5" class="net_55"/>
  <line x1="907" x2="961" y1="1096.5" y2="1096.5" class="net_55"/>
  <line x1="983" x2="1044" y1="212.5" y2="212.5" class="net_15"/>
  <line x1="1044" x2="1044" y1="212.5" y2="282.5" class="net_15"/>
  <circle cx="1044" cy="212.5" r="2" style="fill:#000" class="net_15"/>
  <line x1="1044" x2="1098" y1="282.5" y2="282.5" class="net_15"/>
  <line x1="983" x2="1171" y1="212.5" y2="212.5" class="net_15"/>
  <line x1="1171" x2="1171" y1="212.5" y2="272.5" class="net_15"/>
  <circle cx="1171" cy="212.5" r="2" style="fill:#000" class="net_15"/>
  <line x1="1171" x2="1196" y1="272.5" y2="272.5" class="net_15"/>
  <line x1="983" x2="1196" y1="212.5" y2="212.5" class="net_15"/>
  <line x1="972.3333333333334" x2="1108" y1="322.5" y2="322.5" class="net_47,56"/>
  <line x1="1108" x2="1108" y1="322.5" y2="307.5" class="net_47,56"/>
  <line x1="1118" x2="1196" y1="292.5" y2="292.5" class="net_57"/>
  <line x1="981" x2="1044" y1="873" y2="873" class="net_58"/>
  <line x1="1044" x2="1044" y1="873" y2="964.5" class="net_58"/>
  <circle cx="1044" cy="873" r="2" style="fill:#000" class="net_58"/>
  <line x1="1044" x2="1098" y1="964.5" y2="964.5" class="net_58"/>
  <line x1="981" x2="1171" y1="873" y2="873" class="net_58"/>
  <line x1="1171" x2="1171" y1="873" y2="954.5" class="net_58"/>
  <line x1="1171" x2="1196" y1="954.5" y2="954.5" class="net_58"/>
  <line x1="1118" x2="1196" y1="974.5" y2="974.5" class="net_59"/>
  <line x1="968.75" x2="1098" y1="665" y2="665" class="net_88,89,60,61,90,91,92,93"/>
  <line x1="968.75" x2="1108" y1="944.5" y2="944.5" class="net_47,48,56,62"/>
  <line x1="1108" x2="1108" y1="944.5" y2="670" class="net_47,48,56,62"/>
  <line x1="1118" x2="1196" y1="655" y2="655" class="net_63,64"/>
  <line x1="153" x2="190" y1="32" y2="32" class="net_2,3,4,5,6,7,8,9"/>
  <line x1="40" x2="77" y1="32" y2="32" class="net_10"/>
  <line x1="382" x2="469" y1="916.5" y2="916.5" class="net_26"/>
  <line x1="805" x2="857" y1="74.5" y2="74.5" class="net_72,73,74,75,76"/>
  <line x1="857" x2="857" y1="74.5" y2="119.5" class="net_72,73,74,75,76"/>
  <line x1="857" x2="966.3333333333334" y1="119.5" y2="119.5" class="net_72,73,74,75,76"/>
  <line x1="804" x2="966.3333333333334" y1="139.5" y2="139.5" class="net_42,43,44,45,46"/>
  <line x1="700" x2="789.3333333333334" y1="516.5" y2="516.5" class="net_48"/>
  <line x1="807.3333333333334" x2="887" y1="752.5" y2="752.5" class="net_56"/>
  <line x1="887" x2="887" y1="752.5" y2="332.5" class="net_56"/>
  <circle cx="887" cy="752.5" r="2" style="fill:#000" class="net_56"/>
  <line x1="887" x2="966.3333333333334" y1="332.5" y2="332.5" class="net_56"/>
  <line x1="807.3333333333334" x2="887" y1="752.5" y2="752.5" class="net_56"/>
  <line x1="887" x2="887" y1="752.5" y2="954.5" class="net_56"/>
  <line x1="887" x2="962.75" y1="954.5" y2="954.5" class="net_56"/>
  <line x1="805" x2="917" y1="570" y2="570" class="net_88,89"/>
  <line x1="917" x2="917" y1="570" y2="655" class="net_88,89"/>
  <line x1="917" x2="962.75" y1="655" y2="655" class="net_88,89"/>
  <line x1="804" x2="877" y1="635" y2="635" class="net_60,61"/>
  <line x1="877" x2="877" y1="635" y2="675" class="net_60,61"/>
  <line x1="877" x2="962.75" y1="675" y2="675" class="net_60,61"/>
  <line x1="805" x2="962.75" y1="695" y2="695" class="net_90,91,92,93"/>
  <line x1="808.5" x2="962.75" y1="974.5" y2="974.5" class="net_62"/>
</svg>
