<svg xmlns="http://www.w3.org/2000/svg" xmlns:xlink="http://www.w3.org/1999/xlink" xmlns:s="https://github.com/nturley/netlistsvg" width="463" height="251">
  <style>svg {
    stroke:#000;
    fill:none;
  }
  text {
    fill:#000;
    stroke:none;
    font-size:10px;
    font-weight: bold;
    font-family: "Courier New", monospace;
  }
  .nodelabel {
    text-anchor: middle;
  }
  .inputPortLabel {
    text-anchor: end;
  }
  .splitjoinBody {
    fill:#000;
  }</style>
  <g s:type="add" transform="translate(278.3333333333333,40.5)" s:width="25" s:height="25" id="cell_$add$./Reset_Delay.v:11$54">
    <s:alias val="$add"/>
    <circle r="12.5" cx="12.5" cy="12.5" class="cell_$add$./Reset_Delay.v:11$54"/>
    <line x1="7.5" x2="17.5" y1="12.5" y2="12.5" class="cell_$add$./Reset_Delay.v:11$54"/>
    <line x1="12.5" x2="12.5" y1="7.5" y2="17.5" class="cell_$add$./Reset_Delay.v:11$54"/>
    <g s:x="3" s:y="5" s:pid="A"/>
    <g s:x="3" s:y="20" s:pid="B"/>
    <g s:x="25" s:y="12.5" s:pid="Y"/>
  </g>
  <g s:type="generic" transform="translate(96,121)" s:width="30" s:height="40" id="cell_$ne$./Reset_Delay.v:9$53">
    <text x="15" y="-4" class="nodelabel cell_$ne$./Reset_Delay.v:9$53" s:attribute="ref">$ne</text>
    <rect width="30" height="40" s:generic="body" class="cell_$ne$./Reset_Delay.v:9$53"/>
    <g transform="translate(0,10)" s:x="0" s:y="10" s:pid="in0" id="port_$ne$./Reset_Delay.v:9$53~A">
      <text x="-3" y="-4" class="inputPortLabel cell_$ne$./Reset_Delay.v:9$53">A</text>
    </g>
    <g transform="translate(0,30)" s:x="0" s:y="10" s:pid="in0" id="port_$ne$./Reset_Delay.v:9$53~B">
      <text x="-3" y="-4" class="inputPortLabel cell_$ne$./Reset_Delay.v:9$53">B</text>
    </g>
    <g transform="translate(30,10)" s:x="30" s:y="10" s:pid="out0" id="port_$ne$./Reset_Delay.v:9$53~Y">
      <text x="5" y="-4" style="fill:#000; stroke:none" class="cell_$ne$./Reset_Delay.v:9$53">Y</text>
    </g>
  </g>
  <g s:type="dff" transform="translate(340,199)" s:width="30" s:height="40" id="cell_$procdff$91">
    <s:alias val="$dff"/>
    <s:alias val="$_DFF_"/>
    <s:alias val="$_DFF_P_"/>
    <rect width="30" height="40" x="0" y="0" class="cell_$procdff$91"/>
    <path d="M0,35 L5,30 L0,25" class="cell_$procdff$91"/>
    <g s:x="30" s:y="10" s:pid="Q"/>
    <g s:x="0" s:y="30" s:pid="CLK"/>
    <g s:x="0" s:y="30" s:pid="C"/>
    <g s:x="0" s:y="10" s:pid="D"/>
  </g>
  <g s:type="dff" transform="translate(405,33)" s:width="30" s:height="40" id="cell_$procdff$92">
    <s:alias val="$dff"/>
    <s:alias val="$_DFF_"/>
    <s:alias val="$_DFF_P_"/>
    <rect width="30" height="40" x="0" y="0" class="cell_$procdff$92"/>
    <path d="M0,35 L5,30 L0,25" class="cell_$procdff$92"/>
    <g s:x="30" s:y="10" s:pid="Q"/>
    <g s:x="0" s:y="30" s:pid="CLK"/>
    <g s:x="0" s:y="30" s:pid="C"/>
    <g s:x="0" s:y="10" s:pid="D"/>
  </g>
  <g s:type="mux" transform="translate(278.3333333333333,189)" s:width="20" s:height="40" id="cell_$procmux$86">
    <s:alias val="$pmux"/>
    <s:alias val="$mux"/>
    <s:alias val="$_MUX_"/>
    <path d="M0,0 L20,10 L20,30 L0,40 Z" class="cell_$procmux$86"/>
    <g s:x="0" s:y="10" s:pid="A"/>
    <g s:x="0" s:y="30" s:pid="B"/>
    <g s:x="10" s:y="35" s:pid="S"/>
    <g s:x="20" s:y="20" s:pid="Y"/>
  </g>
  <g s:type="mux" transform="translate(346.6666666666667,23)" s:width="20" s:height="40" id="cell_$procmux$89">
    <s:alias val="$pmux"/>
    <s:alias val="$mux"/>
    <s:alias val="$_MUX_"/>
    <path d="M0,0 L20,10 L20,30 L0,40 Z" class="cell_$procmux$89"/>
    <g s:x="0" s:y="10" s:pid="A"/>
    <g s:x="0" s:y="30" s:pid="B"/>
    <g s:x="10" s:y="35" s:pid="S"/>
    <g s:x="20" s:y="20" s:pid="Y"/>
  </g>
  <g s:type="inputExt" transform="translate(275,101.5)" s:width="30" s:height="20" id="cell_iCLK">
    <text x="15" y="-4" class="nodelabel cell_iCLK" s:attribute="ref">iCLK</text>
    <s:alias val="$_inputExt_"/>
    <path d="M0,0 L0,20 L15,20 L30,10 L15,0 Z" class="cell_iCLK"/>
    <g s:x="28" s:y="10" s:pid="Y"/>
  </g>
  <g s:type="outputExt" transform="translate(405,199)" s:width="30" s:height="20" id="cell_oRESET">
    <text x="15" y="-4" class="nodelabel cell_oRESET" s:attribute="ref">oRESET</text>
    <s:alias val="$_outputExt_"/>
    <path d="M30,0 L30,20 L15,20 L0,10 L15,0 Z" class="cell_oRESET"/>
    <g s:x="0" s:y="10" s:pid="A"/>
  </g>
  <g s:type="constant" transform="translate(96,50.5)" s:width="30" s:height="20" id="cell_1">
    <text x="15" y="-4" class="nodelabel cell_1" s:attribute="ref">1</text>
    <s:alias val="$_constant_"/>
    <rect width="30" height="20" class="cell_1"/>
    <g s:x="30" s:y="10" s:pid="Y"/>
  </g>
  <g s:type="constant" transform="translate(12,141.5)" s:width="30" s:height="20" id="cell_11111111111111111111">
    <text x="15" y="-4" class="nodelabel cell_11111111111111111111" s:attribute="ref">0xfffff</text>
    <s:alias val="$_constant_"/>
    <rect width="30" height="20" class="cell_11111111111111111111"/>
    <g s:x="30" s:y="10" s:pid="Y"/>
  </g>
  <g s:type="constant" transform="translate(96,209)" s:width="30" s:height="20" id="cell_0">
    <text x="15" y="-4" class="nodelabel cell_0" s:attribute="ref">0</text>
    <s:alias val="$_constant_"/>
    <rect width="30" height="20" class="cell_0"/>
    <g s:x="30" s:y="10" s:pid="Y"/>
  </g>
  <line x1="435" x2="451" y1="43" y2="43" class="net_4,5,6,7,8,9,10,11,12,13,14,15,16,17,18,19,20,21,22,23"/>
  <line x1="451" x2="451" y1="43" y2="12" class="net_4,5,6,7,8,9,10,11,12,13,14,15,16,17,18,19,20,21,22,23"/>
  <line x1="451" x2="260" y1="12" y2="12" class="net_4,5,6,7,8,9,10,11,12,13,14,15,16,17,18,19,20,21,22,23"/>
  <line x1="260" x2="260" y1="12" y2="45.5" class="net_4,5,6,7,8,9,10,11,12,13,14,15,16,17,18,19,20,21,22,23"/>
  <line x1="260" x2="281.3333333333333" y1="45.5" y2="45.5" class="net_4,5,6,7,8,9,10,11,12,13,14,15,16,17,18,19,20,21,22,23"/>
  <line x1="435" x2="451" y1="43" y2="43" class="net_4,5,6,7,8,9,10,11,12,13,14,15,16,17,18,19,20,21,22,23"/>
  <line x1="451" x2="451" y1="43" y2="12" class="net_4,5,6,7,8,9,10,11,12,13,14,15,16,17,18,19,20,21,22,23"/>
  <line x1="451" x2="315" y1="12" y2="12" class="net_4,5,6,7,8,9,10,11,12,13,14,15,16,17,18,19,20,21,22,23"/>
  <line x1="315" x2="315" y1="12" y2="80.5" class="net_4,5,6,7,8,9,10,11,12,13,14,15,16,17,18,19,20,21,22,23"/>
  <line x1="315" x2="64" y1="80.5" y2="80.5" class="net_4,5,6,7,8,9,10,11,12,13,14,15,16,17,18,19,20,21,22,23"/>
  <line x1="64" x2="64" y1="80.5" y2="131.5" class="net_4,5,6,7,8,9,10,11,12,13,14,15,16,17,18,19,20,21,22,23"/>
  <circle cx="315" cy="12" r="2" style="fill:#000" class="net_4,5,6,7,8,9,10,11,12,13,14,15,16,17,18,19,20,21,22,23"/>
  <line x1="64" x2="96" y1="131.5" y2="131.5" class="net_4,5,6,7,8,9,10,11,12,13,14,15,16,17,18,19,20,21,22,23"/>
  <line x1="435" x2="451" y1="43" y2="43" class="net_4,5,6,7,8,9,10,11,12,13,14,15,16,17,18,19,20,21,22,23"/>
  <line x1="451" x2="451" y1="43" y2="12" class="net_4,5,6,7,8,9,10,11,12,13,14,15,16,17,18,19,20,21,22,23"/>
  <line x1="451" x2="315" y1="12" y2="12" class="net_4,5,6,7,8,9,10,11,12,13,14,15,16,17,18,19,20,21,22,23"/>
  <line x1="315" x2="315" y1="12" y2="33" class="net_4,5,6,7,8,9,10,11,12,13,14,15,16,17,18,19,20,21,22,23"/>
  <circle cx="315" cy="33" r="2" style="fill:#000" class="net_4,5,6,7,8,9,10,11,12,13,14,15,16,17,18,19,20,21,22,23"/>
  <line x1="315" x2="346.6666666666667" y1="33" y2="33" class="net_4,5,6,7,8,9,10,11,12,13,14,15,16,17,18,19,20,21,22,23"/>
  <line x1="126" x2="281.3333333333333" y1="60.5" y2="60.5" class="net_66"/>
  <line x1="126" x2="260" y1="60.5" y2="60.5" class="net_66"/>
  <line x1="260" x2="260" y1="60.5" y2="199" class="net_66"/>
  <circle cx="260" cy="60.5" r="2" style="fill:#000" class="net_66"/>
  <line x1="260" x2="278.3333333333333" y1="199" y2="199" class="net_66"/>
  <line x1="42" x2="96" y1="151.5" y2="151.5" class="net_67,68,69,70,71,72,73,74,75,76,77,78,79,80,81,82,83,84,85,86"/>
  <line x1="303" x2="315" y1="111.5" y2="111.5" class="net_2"/>
  <line x1="315" x2="315" y1="111.5" y2="229" class="net_2"/>
  <circle cx="315" cy="111.5" r="2" style="fill:#000" class="net_2"/>
  <line x1="315" x2="340" y1="229" y2="229" class="net_2"/>
  <line x1="303" x2="380" y1="111.5" y2="111.5" class="net_2"/>
  <line x1="380" x2="380" y1="111.5" y2="63" class="net_2"/>
  <line x1="380" x2="405" y1="63" y2="63" class="net_2"/>
  <line x1="298.3333333333333" x2="340" y1="209" y2="209" class="net_45"/>
  <line x1="366.6666666666667" x2="405" y1="43" y2="43" class="net_46,47,48,49,50,51,52,53,54,55,56,57,58,59,60,61,62,63,64,65"/>
  <line x1="126" x2="278.3333333333333" y1="219" y2="219" class="net_88"/>
  <line x1="127" x2="250" y1="131.5" y2="131.5" class="net_44"/>
  <line x1="250" x2="250" y1="131.5" y2="239" class="net_44"/>
  <line x1="250" x2="288.3333333333333" y1="239" y2="239" class="net_44"/>
  <circle cx="250" cy="131.5" r="2" style="fill:#000" class="net_44"/>
  <line x1="288.3333333333333" x2="288.3333333333333" y1="239" y2="224" class="net_44"/>
  <line x1="127" x2="356.6666666666667" y1="131.5" y2="131.5" class="net_44"/>
  <line x1="356.6666666666667" x2="356.6666666666667" y1="131.5" y2="58" class="net_44"/>
  <line x1="303.3333333333333" x2="346.6666666666667" y1="53" y2="53" class="net_24,25,26,27,28,29,30,31,32,33,34,35,36,37,38,39,40,41,42,43"/>
  <line x1="370" x2="405" y1="209" y2="209" class="net_3"/>
</svg>
