<svg xmlns="http://www.w3.org/2000/svg" xmlns:xlink="http://www.w3.org/1999/xlink" xmlns:s="https://github.com/nturley/netlistsvg" width="419" height="296">
  <style>svg {
    stroke:#000;
    fill:none;
  }
  text {
    fill:#000;
    stroke:none;
    font-size:10px;
    font-weight: bold;
    font-family: "Courier New", monospace;
  }
  .nodelabel {
    text-anchor: middle;
  }
  .inputPortLabel {
    text-anchor: end;
  }
  .splitjoinBody {
    fill:#000;
  }</style>
  <g s:type="dff" transform="translate(312,223)" s:width="30" s:height="40" id="cell_$procdff$17">
    <s:alias val="$dff"/>
    <s:alias val="$_DFF_"/>
    <s:alias val="$_DFF_P_"/>
    <rect width="30" height="40" x="0" y="0" class="cell_$procdff$17"/>
    <path d="M0,35 L5,30 L0,25" class="cell_$procdff$17"/>
    <g s:x="30" s:y="10" s:pid="Q"/>
    <g s:x="0" s:y="30" s:pid="CLK"/>
    <g s:x="0" s:y="30" s:pid="C"/>
    <g s:x="0" s:y="10" s:pid="D"/>
  </g>
  <g s:type="dff" transform="translate(312,138)" s:width="30" s:height="40" id="cell_$procdff$18">
    <s:alias val="$dff"/>
    <s:alias val="$_DFF_"/>
    <s:alias val="$_DFF_P_"/>
    <rect width="30" height="40" x="0" y="0" class="cell_$procdff$18"/>
    <path d="M0,35 L5,30 L0,25" class="cell_$procdff$18"/>
    <g s:x="30" s:y="10" s:pid="Q"/>
    <g s:x="0" s:y="30" s:pid="CLK"/>
    <g s:x="0" s:y="30" s:pid="C"/>
    <g s:x="0" s:y="10" s:pid="D"/>
  </g>
  <g s:type="mux" transform="translate(156.66666666666666,223)" s:width="20" s:height="40" id="cell_$procmux$12">
    <s:alias val="$pmux"/>
    <s:alias val="$mux"/>
    <s:alias val="$_MUX_"/>
    <path d="M0,0 L20,10 L20,30 L0,40 Z" class="cell_$procmux$12"/>
    <g s:x="0" s:y="10" s:pid="A"/>
    <g s:x="0" s:y="30" s:pid="B"/>
    <g s:x="10" s:y="35" s:pid="S"/>
    <g s:x="20" s:y="20" s:pid="Y"/>
  </g>
  <g s:type="mux" transform="translate(250.33333333333334,213)" s:width="20" s:height="40" id="cell_$procmux$15">
    <s:alias val="$pmux"/>
    <s:alias val="$mux"/>
    <s:alias val="$_MUX_"/>
    <path d="M0,0 L20,10 L20,30 L0,40 Z" class="cell_$procmux$15"/>
    <g s:x="0" s:y="10" s:pid="A"/>
    <g s:x="0" s:y="30" s:pid="B"/>
    <g s:x="10" s:y="35" s:pid="S"/>
    <g s:x="20" s:y="20" s:pid="Y"/>
  </g>
  <g s:type="mux" transform="translate(153.33333333333334,32)" s:width="20" s:height="40" id="cell_$procmux$6">
    <s:alias val="$pmux"/>
    <s:alias val="$mux"/>
    <s:alias val="$_MUX_"/>
    <path d="M0,0 L20,10 L20,30 L0,40 Z" class="cell_$procmux$6"/>
    <g s:x="0" s:y="10" s:pid="A"/>
    <g s:x="0" s:y="30" s:pid="B"/>
    <g s:x="10" s:y="35" s:pid="S"/>
    <g s:x="20" s:y="20" s:pid="Y"/>
  </g>
  <g s:type="mux" transform="translate(253.66666666666666,22)" s:width="20" s:height="40" id="cell_$procmux$9">
    <s:alias val="$pmux"/>
    <s:alias val="$mux"/>
    <s:alias val="$_MUX_"/>
    <path d="M0,0 L20,10 L20,30 L0,40 Z" class="cell_$procmux$9"/>
    <g s:x="0" s:y="10" s:pid="A"/>
    <g s:x="0" s:y="30" s:pid="B"/>
    <g s:x="10" s:y="35" s:pid="S"/>
    <g s:x="20" s:y="20" s:pid="Y"/>
  </g>
  <g s:type="inputExt" transform="translate(247,158)" s:width="30" s:height="20" id="cell_clk">
    <text x="15" y="-4" class="nodelabel cell_clk" s:attribute="ref">clk</text>
    <s:alias val="$_inputExt_"/>
    <path d="M0,0 L0,20 L15,20 L30,10 L15,0 Z" class="cell_clk"/>
    <g s:x="28" s:y="10" s:pid="Y"/>
  </g>
  <g s:type="inputExt" transform="translate(134,128)" s:width="30" s:height="20" id="cell_senal_alcohol">
    <text x="15" y="-4" class="nodelabel cell_senal_alcohol" s:attribute="ref">senal_alcohol</text>
    <s:alias val="$_inputExt_"/>
    <path d="M0,0 L0,20 L15,20 L30,10 L15,0 Z" class="cell_senal_alcohol"/>
    <g s:x="28" s:y="10" s:pid="Y"/>
  </g>
  <g s:type="inputExt" transform="translate(12,263)" s:width="30" s:height="20" id="cell_senal_sonido">
    <text x="15" y="-4" class="nodelabel cell_senal_sonido" s:attribute="ref">senal_sonido</text>
    <s:alias val="$_inputExt_"/>
    <path d="M0,0 L0,20 L15,20 L30,10 L15,0 Z" class="cell_senal_sonido"/>
    <g s:x="28" s:y="10" s:pid="Y"/>
  </g>
  <g s:type="outputExt" transform="translate(377,223)" s:width="30" s:height="20" id="cell_led1">
    <text x="15" y="-4" class="nodelabel cell_led1" s:attribute="ref">led1</text>
    <s:alias val="$_outputExt_"/>
    <path d="M30,0 L30,20 L15,20 L0,10 L15,0 Z" class="cell_led1"/>
    <g s:x="0" s:y="10" s:pid="A"/>
  </g>
  <g s:type="outputExt" transform="translate(377,138)" s:width="30" s:height="20" id="cell_led2">
    <text x="15" y="-4" class="nodelabel cell_led2" s:attribute="ref">led2</text>
    <s:alias val="$_outputExt_"/>
    <path d="M30,0 L30,20 L15,20 L0,10 L15,0 Z" class="cell_led2"/>
    <g s:x="0" s:y="10" s:pid="A"/>
  </g>
  <g s:type="constant" transform="translate(12,32)" s:width="30" s:height="20" id="cell_1">
    <text x="15" y="-4" class="nodelabel cell_1" s:attribute="ref">1</text>
    <s:alias val="$_constant_"/>
    <rect width="30" height="20" class="cell_1"/>
    <g s:x="30" s:y="10" s:pid="Y"/>
  </g>
  <g s:type="constant" transform="translate(12,97)" s:width="30" s:height="20" id="cell_0">
    <text x="15" y="-4" class="nodelabel cell_0" s:attribute="ref">0</text>
    <s:alias val="$_constant_"/>
    <rect width="30" height="20" class="cell_0"/>
    <g s:x="30" s:y="10" s:pid="Y"/>
  </g>
  <line x1="275" x2="287" y1="168" y2="168" class="net_2"/>
  <line x1="287" x2="287" y1="168" y2="253" class="net_2"/>
  <circle cx="287" cy="168" r="2" style="fill:#000" class="net_2"/>
  <line x1="287" x2="312" y1="253" y2="253" class="net_2"/>
  <line x1="275" x2="312" y1="168" y2="168" class="net_2"/>
  <line x1="270.33333333333337" x2="312" y1="233" y2="233" class="net_7"/>
  <line x1="273.66666666666663" x2="287" y1="42" y2="42" class="net_8"/>
  <line x1="287" x2="287" y1="42" y2="148" class="net_8"/>
  <line x1="287" x2="312" y1="148" y2="148" class="net_8"/>
  <line x1="42" x2="94" y1="42" y2="42" class="net_11"/>
  <line x1="94" x2="94" y1="42" y2="233" class="net_11"/>
  <circle cx="94" cy="42" r="2" style="fill:#000" class="net_11"/>
  <line x1="94" x2="156.66666666666666" y1="233" y2="233" class="net_11"/>
  <line x1="42" x2="153.33333333333334" y1="42" y2="42" class="net_11"/>
  <line x1="342" x2="352" y1="233" y2="233" class="net_5"/>
  <line x1="352" x2="352" y1="233" y2="283" class="net_5"/>
  <line x1="352" x2="124" y1="283" y2="283" class="net_5"/>
  <line x1="124" x2="124" y1="283" y2="253" class="net_5"/>
  <circle cx="352" cy="233" r="2" style="fill:#000" class="net_5"/>
  <line x1="124" x2="156.66666666666666" y1="253" y2="253" class="net_5"/>
  <line x1="342" x2="377" y1="233" y2="233" class="net_5"/>
  <line x1="40" x2="166.66666666666666" y1="273" y2="273" class="net_4"/>
  <line x1="166.66666666666666" x2="166.66666666666666" y1="273" y2="258" class="net_4"/>
  <line x1="40" x2="114" y1="273" y2="273" class="net_4"/>
  <line x1="114" x2="114" y1="273" y2="97" class="net_4"/>
  <line x1="114" x2="163.33333333333334" y1="97" y2="97" class="net_4"/>
  <circle cx="114" cy="273" r="2" style="fill:#000" class="net_4"/>
  <line x1="163.33333333333334" x2="163.33333333333334" y1="97" y2="67" class="net_4"/>
  <line x1="42" x2="232" y1="107" y2="107" class="net_12"/>
  <line x1="232" x2="232" y1="107" y2="223" class="net_12"/>
  <line x1="232" x2="250.33333333333334" y1="223" y2="223" class="net_12"/>
  <line x1="42" x2="104" y1="107" y2="107" class="net_12"/>
  <line x1="104" x2="104" y1="107" y2="62" class="net_12"/>
  <circle cx="104" cy="107" r="2" style="fill:#000" class="net_12"/>
  <line x1="104" x2="153.33333333333334" y1="62" y2="62" class="net_12"/>
  <line x1="176.66666666666666" x2="250.33333333333334" y1="243" y2="243" class="net_9"/>
  <line x1="162" x2="222" y1="138" y2="138" class="net_3"/>
  <line x1="222" x2="222" y1="138" y2="263" class="net_3"/>
  <line x1="222" x2="260.33333333333337" y1="263" y2="263" class="net_3"/>
  <circle cx="222" cy="138" r="2" style="fill:#000" class="net_3"/>
  <line x1="260.33333333333337" x2="260.33333333333337" y1="263" y2="248" class="net_3"/>
  <line x1="162" x2="263.66666666666663" y1="138" y2="138" class="net_3"/>
  <line x1="263.66666666666663" x2="263.66666666666663" y1="138" y2="57" class="net_3"/>
  <line x1="342" x2="352" y1="148" y2="148" class="net_6"/>
  <line x1="352" x2="352" y1="148" y2="12" class="net_6"/>
  <line x1="352" x2="232" y1="12" y2="12" class="net_6"/>
  <line x1="232" x2="232" y1="12" y2="32" class="net_6"/>
  <circle cx="352" cy="148" r="2" style="fill:#000" class="net_6"/>
  <line x1="232" x2="253.66666666666666" y1="32" y2="32" class="net_6"/>
  <line x1="342" x2="377" y1="148" y2="148" class="net_6"/>
  <line x1="173.33333333333334" x2="253.66666666666666" y1="52" y2="52" class="net_10"/>
</svg>
