<svg xmlns="http://www.w3.org/2000/svg" xmlns:xlink="http://www.w3.org/1999/xlink" xmlns:s="https://github.com/nturley/netlistsvg" width="559" height="398">
  <style>svg {
    stroke:#000;
    fill:none;
  }
  text {
    fill:#000;
    stroke:none;
    font-size:10px;
    font-weight: bold;
    font-family: "Courier New", monospace;
  }
  .nodelabel {
    text-anchor: middle;
  }
  .inputPortLabel {
    text-anchor: end;
  }
  .splitjoinBody {
    fill:#000;
  }</style>
  <g s:type="generic" transform="translate(96,323)" s:width="30" s:height="40" id="cell_Sumador_0">
    <text x="15" y="-4" class="nodelabel cell_Sumador_0" s:attribute="ref">Sumador</text>
    <rect width="30" height="60" s:generic="body" class="cell_Sumador_0"/>
    <g transform="translate(0,10)" s:x="0" s:y="10" s:pid="in0" id="port_Sumador_0~A">
      <text x="-3" y="-4" class="inputPortLabel cell_Sumador_0">A</text>
    </g>
    <g transform="translate(0,30)" s:x="0" s:y="10" s:pid="in0" id="port_Sumador_0~B">
      <text x="-3" y="-4" class="inputPortLabel cell_Sumador_0">B</text>
    </g>
    <g transform="translate(0,50)" s:x="0" s:y="10" s:pid="in0" id="port_Sumador_0~CIn">
      <text x="-3" y="-4" class="inputPortLabel cell_Sumador_0">CIn</text>
    </g>
    <g transform="translate(30,10)" s:x="30" s:y="10" s:pid="out0" id="port_Sumador_0~COut">
      <text x="5" y="-4" style="fill:#000; stroke:none" class="cell_Sumador_0">COut</text>
    </g>
    <g transform="translate(30,30)" s:x="30" s:y="10" s:pid="out0" id="port_Sumador_0~Sum">
      <text x="5" y="-4" style="fill:#000; stroke:none" class="cell_Sumador_0">Sum</text>
    </g>
  </g>
  <g s:type="generic" transform="translate(206,237.5)" s:width="30" s:height="40" id="cell_Sumador_1">
    <text x="15" y="-4" class="nodelabel cell_Sumador_1" s:attribute="ref">Sumador</text>
    <rect width="30" height="60" s:generic="body" class="cell_Sumador_1"/>
    <g transform="translate(0,10)" s:x="0" s:y="10" s:pid="in0" id="port_Sumador_1~A">
      <text x="-3" y="-4" class="inputPortLabel cell_Sumador_1">A</text>
    </g>
    <g transform="translate(0,30)" s:x="0" s:y="10" s:pid="in0" id="port_Sumador_1~B">
      <text x="-3" y="-4" class="inputPortLabel cell_Sumador_1">B</text>
    </g>
    <g transform="translate(0,50)" s:x="0" s:y="10" s:pid="in0" id="port_Sumador_1~CIn">
      <text x="-3" y="-4" class="inputPortLabel cell_Sumador_1">CIn</text>
    </g>
    <g transform="translate(30,10)" s:x="30" s:y="10" s:pid="out0" id="port_Sumador_1~COut">
      <text x="5" y="-4" style="fill:#000; stroke:none" class="cell_Sumador_1">COut</text>
    </g>
    <g transform="translate(30,30)" s:x="30" s:y="10" s:pid="out0" id="port_Sumador_1~Sum">
      <text x="5" y="-4" style="fill:#000; stroke:none" class="cell_Sumador_1">Sum</text>
    </g>
  </g>
  <g s:type="generic" transform="translate(316,152)" s:width="30" s:height="40" id="cell_Sumador_2">
    <text x="15" y="-4" class="nodelabel cell_Sumador_2" s:attribute="ref">Sumador</text>
    <rect width="30" height="60" s:generic="body" class="cell_Sumador_2"/>
    <g transform="translate(0,10)" s:x="0" s:y="10" s:pid="in0" id="port_Sumador_2~A">
      <text x="-3" y="-4" class="inputPortLabel cell_Sumador_2">A</text>
    </g>
    <g transform="translate(0,30)" s:x="0" s:y="10" s:pid="in0" id="port_Sumador_2~B">
      <text x="-3" y="-4" class="inputPortLabel cell_Sumador_2">B</text>
    </g>
    <g transform="translate(0,50)" s:x="0" s:y="10" s:pid="in0" id="port_Sumador_2~CIn">
      <text x="-3" y="-4" class="inputPortLabel cell_Sumador_2">CIn</text>
    </g>
    <g transform="translate(30,10)" s:x="30" s:y="10" s:pid="out0" id="port_Sumador_2~COut">
      <text x="5" y="-4" style="fill:#000; stroke:none" class="cell_Sumador_2">COut</text>
    </g>
    <g transform="translate(30,30)" s:x="30" s:y="10" s:pid="out0" id="port_Sumador_2~Sum">
      <text x="5" y="-4" style="fill:#000; stroke:none" class="cell_Sumador_2">Sum</text>
    </g>
  </g>
  <g s:type="generic" transform="translate(426,66.5)" s:width="30" s:height="40" id="cell_Sumador_3">
    <text x="15" y="-4" class="nodelabel cell_Sumador_3" s:attribute="ref">Sumador</text>
    <rect width="30" height="60" s:generic="body" class="cell_Sumador_3"/>
    <g transform="translate(0,10)" s:x="0" s:y="10" s:pid="in0" id="port_Sumador_3~A">
      <text x="-3" y="-4" class="inputPortLabel cell_Sumador_3">A</text>
    </g>
    <g transform="translate(0,30)" s:x="0" s:y="10" s:pid="in0" id="port_Sumador_3~B">
      <text x="-3" y="-4" class="inputPortLabel cell_Sumador_3">B</text>
    </g>
    <g transform="translate(0,50)" s:x="0" s:y="10" s:pid="in0" id="port_Sumador_3~CIn">
      <text x="-3" y="-4" class="inputPortLabel cell_Sumador_3">CIn</text>
    </g>
    <g transform="translate(30,10)" s:x="30" s:y="10" s:pid="out0" id="port_Sumador_3~COut">
      <text x="5" y="-4" style="fill:#000; stroke:none" class="cell_Sumador_3">COut</text>
    </g>
    <g transform="translate(30,30)" s:x="30" s:y="10" s:pid="out0" id="port_Sumador_3~Sum">
      <text x="5" y="-4" style="fill:#000; stroke:none" class="cell_Sumador_3">Sum</text>
    </g>
  </g>
  <g s:type="inputExt" transform="translate(12,233.5)" s:width="30" s:height="20" id="cell_A0">
    <text x="15" y="-4" class="nodelabel cell_A0" s:attribute="ref">A0</text>
    <s:alias val="$_inputExt_"/>
    <path d="M0,0 L0,20 L15,20 L30,10 L15,0 Z" class="cell_A0"/>
    <g s:x="28" s:y="10" s:pid="Y"/>
  </g>
  <g s:type="inputExt" transform="translate(12,298.5)" s:width="30" s:height="20" id="cell_B0">
    <text x="15" y="-4" class="nodelabel cell_B0" s:attribute="ref">B0</text>
    <s:alias val="$_inputExt_"/>
    <path d="M0,0 L0,20 L15,20 L30,10 L15,0 Z" class="cell_B0"/>
    <g s:x="28" s:y="10" s:pid="Y"/>
  </g>
  <g s:type="inputExt" transform="translate(96,193)" s:width="30" s:height="20" id="cell_A1">
    <text x="15" y="-4" class="nodelabel cell_A1" s:attribute="ref">A1</text>
    <s:alias val="$_inputExt_"/>
    <path d="M0,0 L0,20 L15,20 L30,10 L15,0 Z" class="cell_A1"/>
    <g s:x="28" s:y="10" s:pid="Y"/>
  </g>
  <g s:type="inputExt" transform="translate(96,258)" s:width="30" s:height="20" id="cell_B1">
    <text x="15" y="-4" class="nodelabel cell_B1" s:attribute="ref">B1</text>
    <s:alias val="$_inputExt_"/>
    <path d="M0,0 L0,20 L15,20 L30,10 L15,0 Z" class="cell_B1"/>
    <g s:x="28" s:y="10" s:pid="Y"/>
  </g>
  <g s:type="inputExt" transform="translate(206,107.5)" s:width="30" s:height="20" id="cell_A2">
    <text x="15" y="-4" class="nodelabel cell_A2" s:attribute="ref">A2</text>
    <s:alias val="$_inputExt_"/>
    <path d="M0,0 L0,20 L15,20 L30,10 L15,0 Z" class="cell_A2"/>
    <g s:x="28" s:y="10" s:pid="Y"/>
  </g>
  <g s:type="inputExt" transform="translate(206,172.5)" s:width="30" s:height="20" id="cell_B2">
    <text x="15" y="-4" class="nodelabel cell_B2" s:attribute="ref">B2</text>
    <s:alias val="$_inputExt_"/>
    <path d="M0,0 L0,20 L15,20 L30,10 L15,0 Z" class="cell_B2"/>
    <g s:x="28" s:y="10" s:pid="Y"/>
  </g>
  <g s:type="inputExt" transform="translate(316,22)" s:width="30" s:height="20" id="cell_A3">
    <text x="15" y="-4" class="nodelabel cell_A3" s:attribute="ref">A3</text>
    <s:alias val="$_inputExt_"/>
    <path d="M0,0 L0,20 L15,20 L30,10 L15,0 Z" class="cell_A3"/>
    <g s:x="28" s:y="10" s:pid="Y"/>
  </g>
  <g s:type="inputExt" transform="translate(316,87)" s:width="30" s:height="20" id="cell_B3">
    <text x="15" y="-4" class="nodelabel cell_B3" s:attribute="ref">B3</text>
    <s:alias val="$_inputExt_"/>
    <path d="M0,0 L0,20 L15,20 L30,10 L15,0 Z" class="cell_B3"/>
    <g s:x="28" s:y="10" s:pid="Y"/>
  </g>
  <g s:type="inputExt" transform="translate(12,363.5)" s:width="30" s:height="20" id="cell_Cin">
    <text x="15" y="-4" class="nodelabel cell_Cin" s:attribute="ref">Cin</text>
    <s:alias val="$_inputExt_"/>
    <path d="M0,0 L0,20 L15,20 L30,10 L15,0 Z" class="cell_Cin"/>
    <g s:x="28" s:y="10" s:pid="Y"/>
  </g>
  <g s:type="outputExt" transform="translate(517,343.5)" s:width="30" s:height="20" id="cell_C0">
    <text x="15" y="-4" class="nodelabel cell_C0" s:attribute="ref">C0</text>
    <s:alias val="$_outputExt_"/>
    <path d="M30,0 L30,20 L15,20 L0,10 L15,0 Z" class="cell_C0"/>
    <g s:x="0" s:y="10" s:pid="A"/>
  </g>
  <g s:type="outputExt" transform="translate(517,258)" s:width="30" s:height="20" id="cell_C1">
    <text x="15" y="-4" class="nodelabel cell_C1" s:attribute="ref">C1</text>
    <s:alias val="$_outputExt_"/>
    <path d="M30,0 L30,20 L15,20 L0,10 L15,0 Z" class="cell_C1"/>
    <g s:x="0" s:y="10" s:pid="A"/>
  </g>
  <g s:type="outputExt" transform="translate(517,172.5)" s:width="30" s:height="20" id="cell_C2">
    <text x="15" y="-4" class="nodelabel cell_C2" s:attribute="ref">C2</text>
    <s:alias val="$_outputExt_"/>
    <path d="M30,0 L30,20 L15,20 L0,10 L15,0 Z" class="cell_C2"/>
    <g s:x="0" s:y="10" s:pid="A"/>
  </g>
  <g s:type="outputExt" transform="translate(517,87)" s:width="30" s:height="20" id="cell_C3">
    <text x="15" y="-4" class="nodelabel cell_C3" s:attribute="ref">C3</text>
    <s:alias val="$_outputExt_"/>
    <path d="M30,0 L30,20 L15,20 L0,10 L15,0 Z" class="cell_C3"/>
    <g s:x="0" s:y="10" s:pid="A"/>
  </g>
  <g s:type="outputExt" transform="translate(517,22)" s:width="30" s:height="20" id="cell_COut">
    <text x="15" y="-4" class="nodelabel cell_COut" s:attribute="ref">COut</text>
    <s:alias val="$_outputExt_"/>
    <path d="M30,0 L30,20 L15,20 L0,10 L15,0 Z" class="cell_COut"/>
    <g s:x="0" s:y="10" s:pid="A"/>
  </g>
  <line x1="40" x2="62" y1="243.5" y2="243.5" class="net_2"/>
  <line x1="62" x2="62" y1="243.5" y2="333.5" class="net_2"/>
  <line x1="62" x2="96" y1="333.5" y2="333.5" class="net_2"/>
  <line x1="40" x2="52" y1="308.5" y2="308.5" class="net_3"/>
  <line x1="52" x2="52" y1="308.5" y2="353.5" class="net_3"/>
  <line x1="52" x2="96" y1="353.5" y2="353.5" class="net_3"/>
  <line x1="40" x2="96" y1="373.5" y2="373.5" class="net_10"/>
  <line x1="124" x2="162" y1="203" y2="203" class="net_4"/>
  <line x1="162" x2="162" y1="203" y2="248" class="net_4"/>
  <line x1="162" x2="206" y1="248" y2="248" class="net_4"/>
  <line x1="124" x2="206" y1="268" y2="268" class="net_5"/>
  <line x1="127" x2="162" y1="333.5" y2="333.5" class="net_16"/>
  <line x1="162" x2="162" y1="333.5" y2="288" class="net_16"/>
  <line x1="162" x2="206" y1="288" y2="288" class="net_16"/>
  <line x1="234" x2="272" y1="117.5" y2="117.5" class="net_6"/>
  <line x1="272" x2="272" y1="117.5" y2="162.5" class="net_6"/>
  <line x1="272" x2="316" y1="162.5" y2="162.5" class="net_6"/>
  <line x1="234" x2="316" y1="182.5" y2="182.5" class="net_7"/>
  <line x1="237" x2="272" y1="248" y2="248" class="net_17"/>
  <line x1="272" x2="272" y1="248" y2="202.5" class="net_17"/>
  <line x1="272" x2="316" y1="202.5" y2="202.5" class="net_17"/>
  <line x1="344" x2="382" y1="32" y2="32" class="net_8"/>
  <line x1="382" x2="382" y1="32" y2="77" class="net_8"/>
  <line x1="382" x2="426" y1="77" y2="77" class="net_8"/>
  <line x1="344" x2="426" y1="97" y2="97" class="net_9"/>
  <line x1="347" x2="382" y1="162.5" y2="162.5" class="net_18"/>
  <line x1="382" x2="382" y1="162.5" y2="117" class="net_18"/>
  <line x1="382" x2="426" y1="117" y2="117" class="net_18"/>
  <line x1="127" x2="517" y1="353.5" y2="353.5" class="net_11"/>
  <line x1="237" x2="517" y1="268" y2="268" class="net_12"/>
  <line x1="347" x2="517" y1="182.5" y2="182.5" class="net_13"/>
  <line x1="457" x2="517" y1="97" y2="97" class="net_14"/>
  <line x1="457" x2="492" y1="77" y2="77" class="net_15"/>
  <line x1="492" x2="492" y1="77" y2="32" class="net_15"/>
  <line x1="492" x2="517" y1="32" y2="32" class="net_15"/>
</svg>
