<svg xmlns="http://www.w3.org/2000/svg" xmlns:xlink="http://www.w3.org/1999/xlink" xmlns:s="https://github.com/nturley/netlistsvg" width="615" height="326">
  <style>svg {
    stroke:#000;
    fill:none;
  }
  text {
    fill:#000;
    stroke:none;
    font-size:10px;
    font-weight: bold;
    font-family: "Courier New", monospace;
  }
  .nodelabel {
    text-anchor: middle;
  }
  .inputPortLabel {
    text-anchor: end;
  }
  .splitjoinBody {
    fill:#000;
  }</style>
  <g s:type="reduce_xor" transform="translate(77,208)" s:width="33" s:height="25" id="cell_$xor$./Com_to_2.v:18$1">
    <s:alias val="$xor"/>
    <s:alias val="$reduce_xor"/>
    <s:alias val="$_XOR_"/>
    <path d="M3,0 A30 25 0 0 1 3,25 A30 25 0 0 0 33,12.5 A30 25 0 0 0 3,0" class="cell_$xor$./Com_to_2.v:18$1"/>
    <path d="M0,0 A30 25 0 0 1 0,25" class="cell_$xor$./Com_to_2.v:18$1"/>
    <g s:x="3" s:y="5" s:pid="A"/>
    <g s:x="3" s:y="20" s:pid="B"/>
    <g s:x="33" s:y="12.5" s:pid="Y"/>
  </g>
  <g s:type="reduce_xor" transform="translate(164.66666666666666,268)" s:width="33" s:height="25" id="cell_$xor$./Com_to_2.v:19$2">
    <s:alias val="$xor"/>
    <s:alias val="$reduce_xor"/>
    <s:alias val="$_XOR_"/>
    <path d="M3,0 A30 25 0 0 1 3,25 A30 25 0 0 0 33,12.5 A30 25 0 0 0 3,0" class="cell_$xor$./Com_to_2.v:19$2"/>
    <path d="M0,0 A30 25 0 0 1 0,25" class="cell_$xor$./Com_to_2.v:19$2"/>
    <g s:x="3" s:y="5" s:pid="A"/>
    <g s:x="3" s:y="20" s:pid="B"/>
    <g s:x="33" s:y="12.5" s:pid="Y"/>
  </g>
  <g s:type="reduce_xor" transform="translate(284.6666666666667,115)" s:width="33" s:height="25" id="cell_$xor$./Com_to_2.v:20$3">
    <s:alias val="$xor"/>
    <s:alias val="$reduce_xor"/>
    <s:alias val="$_XOR_"/>
    <path d="M3,0 A30 25 0 0 1 3,25 A30 25 0 0 0 33,12.5 A30 25 0 0 0 3,0" class="cell_$xor$./Com_to_2.v:20$3"/>
    <path d="M0,0 A30 25 0 0 1 0,25" class="cell_$xor$./Com_to_2.v:20$3"/>
    <g s:x="3" s:y="5" s:pid="A"/>
    <g s:x="3" s:y="20" s:pid="B"/>
    <g s:x="33" s:y="12.5" s:pid="Y"/>
  </g>
  <g s:type="reduce_xor" transform="translate(404.6666666666667,27)" s:width="33" s:height="25" id="cell_$xor$./Com_to_2.v:25$4">
    <s:alias val="$xor"/>
    <s:alias val="$reduce_xor"/>
    <s:alias val="$_XOR_"/>
    <path d="M3,0 A30 25 0 0 1 3,25 A30 25 0 0 0 33,12.5 A30 25 0 0 0 3,0" class="cell_$xor$./Com_to_2.v:25$4"/>
    <path d="M0,0 A30 25 0 0 1 0,25" class="cell_$xor$./Com_to_2.v:25$4"/>
    <g s:x="3" s:y="5" s:pid="A"/>
    <g s:x="3" s:y="20" s:pid="B"/>
    <g s:x="33" s:y="12.5" s:pid="Y"/>
  </g>
  <g s:type="reduce_xor" transform="translate(505,19.5)" s:width="33" s:height="25" id="cell_$xor$./Com_to_2.v:25$5">
    <s:alias val="$xor"/>
    <s:alias val="$reduce_xor"/>
    <s:alias val="$_XOR_"/>
    <path d="M3,0 A30 25 0 0 1 3,25 A30 25 0 0 0 33,12.5 A30 25 0 0 0 3,0" class="cell_$xor$./Com_to_2.v:25$5"/>
    <path d="M0,0 A30 25 0 0 1 0,25" class="cell_$xor$./Com_to_2.v:25$5"/>
    <g s:x="3" s:y="5" s:pid="A"/>
    <g s:x="3" s:y="20" s:pid="B"/>
    <g s:x="33" s:y="12.5" s:pid="Y"/>
  </g>
  <g s:type="generic" transform="translate(152,190)" s:width="30" s:height="40" id="cell_Semisumador_0">
    <text x="15" y="-4" class="nodelabel cell_Semisumador_0" s:attribute="ref">Semisumador</text>
    <rect width="30" height="40" s:generic="body" class="cell_Semisumador_0"/>
    <g transform="translate(0,10)" s:x="0" s:y="10" s:pid="in0" id="port_Semisumador_0~A">
      <text x="-3" y="-4" class="inputPortLabel cell_Semisumador_0">A</text>
    </g>
    <g transform="translate(0,30)" s:x="0" s:y="10" s:pid="in0" id="port_Semisumador_0~B">
      <text x="-3" y="-4" class="inputPortLabel cell_Semisumador_0">B</text>
    </g>
    <g transform="translate(30,10)" s:x="30" s:y="10" s:pid="out0" id="port_Semisumador_0~X">
      <text x="5" y="-4" style="fill:#000; stroke:none" class="cell_Semisumador_0">X</text>
    </g>
    <g transform="translate(30,30)" s:x="30" s:y="10" s:pid="out0" id="port_Semisumador_0~Y">
      <text x="5" y="-4" style="fill:#000; stroke:none" class="cell_Semisumador_0">Y</text>
    </g>
  </g>
  <g s:type="generic" transform="translate(272,190)" s:width="30" s:height="40" id="cell_Semisumador_1">
    <text x="15" y="-4" class="nodelabel cell_Semisumador_1" s:attribute="ref">Semisumador</text>
    <rect width="30" height="40" s:generic="body" class="cell_Semisumador_1"/>
    <g transform="translate(0,10)" s:x="0" s:y="10" s:pid="in0" id="port_Semisumador_1~A">
      <text x="-3" y="-4" class="inputPortLabel cell_Semisumador_1">A</text>
    </g>
    <g transform="translate(0,30)" s:x="0" s:y="10" s:pid="in0" id="port_Semisumador_1~B">
      <text x="-3" y="-4" class="inputPortLabel cell_Semisumador_1">B</text>
    </g>
    <g transform="translate(30,10)" s:x="30" s:y="10" s:pid="out0" id="port_Semisumador_1~X">
      <text x="5" y="-4" style="fill:#000; stroke:none" class="cell_Semisumador_1">X</text>
    </g>
    <g transform="translate(30,30)" s:x="30" s:y="10" s:pid="out0" id="port_Semisumador_1~Y">
      <text x="5" y="-4" style="fill:#000; stroke:none" class="cell_Semisumador_1">Y</text>
    </g>
  </g>
  <g s:type="generic" transform="translate(392,97)" s:width="30" s:height="40" id="cell_Semisumador_2">
    <text x="15" y="-4" class="nodelabel cell_Semisumador_2" s:attribute="ref">Semisumador</text>
    <rect width="30" height="40" s:generic="body" class="cell_Semisumador_2"/>
    <g transform="translate(0,10)" s:x="0" s:y="10" s:pid="in0" id="port_Semisumador_2~A">
      <text x="-3" y="-4" class="inputPortLabel cell_Semisumador_2">A</text>
    </g>
    <g transform="translate(0,30)" s:x="0" s:y="10" s:pid="in0" id="port_Semisumador_2~B">
      <text x="-3" y="-4" class="inputPortLabel cell_Semisumador_2">B</text>
    </g>
    <g transform="translate(30,10)" s:x="30" s:y="10" s:pid="out0" id="port_Semisumador_2~X">
      <text x="5" y="-4" style="fill:#000; stroke:none" class="cell_Semisumador_2">X</text>
    </g>
    <g transform="translate(30,30)" s:x="30" s:y="10" s:pid="out0" id="port_Semisumador_2~Y">
      <text x="5" y="-4" style="fill:#000; stroke:none" class="cell_Semisumador_2">Y</text>
    </g>
  </g>
  <g s:type="inputExt" transform="translate(12,218)" s:width="30" s:height="20" id="cell_A0">
    <text x="15" y="-4" class="nodelabel cell_A0" s:attribute="ref">A0</text>
    <s:alias val="$_inputExt_"/>
    <path d="M0,0 L0,20 L15,20 L30,10 L15,0 Z" class="cell_A0"/>
    <g s:x="28" s:y="10" s:pid="Y"/>
  </g>
  <g s:type="inputExt" transform="translate(80,294)" s:width="30" s:height="20" id="cell_A1">
    <text x="15" y="-4" class="nodelabel cell_A1" s:attribute="ref">A1</text>
    <s:alias val="$_inputExt_"/>
    <path d="M0,0 L0,20 L15,20 L30,10 L15,0 Z" class="cell_A1"/>
    <g s:x="28" s:y="10" s:pid="Y"/>
  </g>
  <g s:type="inputExt" transform="translate(152,125)" s:width="30" s:height="20" id="cell_A2">
    <text x="15" y="-4" class="nodelabel cell_A2" s:attribute="ref">A2</text>
    <s:alias val="$_inputExt_"/>
    <path d="M0,0 L0,20 L15,20 L30,10 L15,0 Z" class="cell_A2"/>
    <g s:x="28" s:y="10" s:pid="Y"/>
  </g>
  <g s:type="inputExt" transform="translate(272,53)" s:width="30" s:height="20" id="cell_A3">
    <text x="15" y="-4" class="nodelabel cell_A3" s:attribute="ref">A3</text>
    <s:alias val="$_inputExt_"/>
    <path d="M0,0 L0,20 L15,20 L30,10 L15,0 Z" class="cell_A3"/>
    <g s:x="28" s:y="10" s:pid="Y"/>
  </g>
  <g s:type="inputExt" transform="translate(12,22)" s:width="30" s:height="20" id="cell_Sin">
    <text x="15" y="-4" class="nodelabel cell_Sin" s:attribute="ref">Sin</text>
    <s:alias val="$_inputExt_"/>
    <path d="M0,0 L0,20 L15,20 L30,10 L15,0 Z" class="cell_Sin"/>
    <g s:x="28" s:y="10" s:pid="Y"/>
  </g>
  <g s:type="outputExt" transform="translate(573,275.5)" s:width="30" s:height="20" id="cell_-A0">
    <text x="15" y="-4" class="nodelabel cell_-A0" s:attribute="ref">-A0</text>
    <s:alias val="$_outputExt_"/>
    <path d="M30,0 L30,20 L15,20 L0,10 L15,0 Z" class="cell_-A0"/>
    <g s:x="0" s:y="10" s:pid="A"/>
  </g>
  <g s:type="outputExt" transform="translate(573,210.5)" s:width="30" s:height="20" id="cell_-A1">
    <text x="15" y="-4" class="nodelabel cell_-A1" s:attribute="ref">-A1</text>
    <s:alias val="$_outputExt_"/>
    <path d="M30,0 L30,20 L15,20 L0,10 L15,0 Z" class="cell_-A1"/>
    <g s:x="0" s:y="10" s:pid="A"/>
  </g>
  <g s:type="outputExt" transform="translate(573,117.5)" s:width="30" s:height="20" id="cell_-A2">
    <text x="15" y="-4" class="nodelabel cell_-A2" s:attribute="ref">-A2</text>
    <s:alias val="$_outputExt_"/>
    <path d="M30,0 L30,20 L15,20 L0,10 L15,0 Z" class="cell_-A2"/>
    <g s:x="0" s:y="10" s:pid="A"/>
  </g>
  <g s:type="outputExt" transform="translate(573,22)" s:width="30" s:height="20" id="cell_-A3">
    <text x="15" y="-4" class="nodelabel cell_-A3" s:attribute="ref">-A3</text>
    <s:alias val="$_outputExt_"/>
    <path d="M30,0 L30,20 L15,20 L0,10 L15,0 Z" class="cell_-A3"/>
    <g s:x="0" s:y="10" s:pid="A"/>
  </g>
  <line x1="40" x2="52" y1="32" y2="32" class="net_6"/>
  <line x1="52" x2="52" y1="32" y2="213" class="net_6"/>
  <circle cx="52" cy="32" r="2" style="fill:#000" class="net_6"/>
  <circle cx="52" cy="213" r="2" style="fill:#000" class="net_6"/>
  <line x1="52" x2="80" y1="213" y2="213" class="net_6"/>
  <line x1="40" x2="52" y1="32" y2="32" class="net_6"/>
  <line x1="52" x2="52" y1="32" y2="273" class="net_6"/>
  <line x1="52" x2="167.66666666666666" y1="273" y2="273" class="net_6"/>
  <line x1="40" x2="240" y1="32" y2="32" class="net_6"/>
  <line x1="240" x2="240" y1="32" y2="120" class="net_6"/>
  <circle cx="240" cy="32" r="2" style="fill:#000" class="net_6"/>
  <line x1="240" x2="287.6666666666667" y1="120" y2="120" class="net_6"/>
  <line x1="40" x2="407.6666666666667" y1="32" y2="32" class="net_6"/>
  <line x1="40" x2="120" y1="32" y2="32" class="net_6"/>
  <line x1="120" x2="120" y1="32" y2="200.5" class="net_6"/>
  <circle cx="120" cy="32" r="2" style="fill:#000" class="net_6"/>
  <line x1="120" x2="152" y1="200.5" y2="200.5" class="net_6"/>
  <line x1="40" x2="80" y1="228" y2="228" class="net_2"/>
  <line x1="108" x2="120" y1="304" y2="304" class="net_3"/>
  <line x1="120" x2="120" y1="304" y2="288" class="net_3"/>
  <line x1="120" x2="167.66666666666666" y1="288" y2="288" class="net_3"/>
  <line x1="180" x2="287.6666666666667" y1="135" y2="135" class="net_4"/>
  <line x1="300" x2="360" y1="63" y2="63" class="net_5"/>
  <line x1="360" x2="360" y1="63" y2="47" class="net_5"/>
  <line x1="360" x2="407.6666666666667" y1="47" y2="47" class="net_5"/>
  <line x1="423" x2="480" y1="107.5" y2="107.5" class="net_15"/>
  <line x1="480" x2="480" y1="107.5" y2="24.5" class="net_15"/>
  <line x1="480" x2="508" y1="24.5" y2="24.5" class="net_15"/>
  <line x1="437.6666666666667" x2="508" y1="39.5" y2="39.5" class="net_14"/>
  <line x1="110" x2="152" y1="220.5" y2="220.5" class="net_11"/>
  <line x1="183" x2="272" y1="200.5" y2="200.5" class="net_16"/>
  <line x1="197.66666666666666" x2="250" y1="280.5" y2="280.5" class="net_12"/>
  <line x1="250" x2="250" y1="280.5" y2="220.5" class="net_12"/>
  <line x1="250" x2="272" y1="220.5" y2="220.5" class="net_12"/>
  <line x1="303" x2="360" y1="200.5" y2="200.5" class="net_17"/>
  <line x1="360" x2="360" y1="200.5" y2="107.5" class="net_17"/>
  <line x1="360" x2="392" y1="107.5" y2="107.5" class="net_17"/>
  <line x1="317.6666666666667" x2="392" y1="127.5" y2="127.5" class="net_13"/>
  <line x1="183" x2="240" y1="220.5" y2="220.5" class="net_7"/>
  <line x1="240" x2="240" y1="220.5" y2="285.5" class="net_7"/>
  <line x1="240" x2="573" y1="285.5" y2="285.5" class="net_7"/>
  <line x1="303" x2="573" y1="220.5" y2="220.5" class="net_8"/>
  <line x1="423" x2="573" y1="127.5" y2="127.5" class="net_9"/>
  <line x1="538" x2="573" y1="32" y2="32" class="net_10"/>
</svg>
