<svg xmlns="http://www.w3.org/2000/svg" xmlns:xlink="http://www.w3.org/1999/xlink" xmlns:s="https://github.com/nturley/netlistsvg" width="544" height="831">
  <style>svg {
    stroke:#000;
    fill:none;
  }
  text {
    fill:#000;
    stroke:none;
    font-size:10px;
    font-weight: bold;
    font-family: "Courier New", monospace;
  }
  .nodelabel {
    text-anchor: middle;
  }
  .inputPortLabel {
    text-anchor: end;
  }
  .splitjoinBody {
    fill:#000;
  }</style>
  <g s:type="add" transform="translate(243.33333333333334,573.5)" s:width="25" s:height="25" id="cell_$add$./Sonido.v:18$69">
    <s:alias val="$add"/>
    <circle r="12.5" cx="12.5" cy="12.5" class="cell_$add$./Sonido.v:18$69"/>
    <line x1="7.5" x2="17.5" y1="12.5" y2="12.5" class="cell_$add$./Sonido.v:18$69"/>
    <line x1="12.5" x2="12.5" y1="7.5" y2="17.5" class="cell_$add$./Sonido.v:18$69"/>
    <g s:x="3" s:y="5" s:pid="A"/>
    <g s:x="3" s:y="20" s:pid="B"/>
    <g s:x="25" s:y="12.5" s:pid="Y"/>
  </g>
  <g s:type="add" transform="translate(165,687)" s:width="25" s:height="25" id="cell_$add$./Sonido.v:24$71">
    <s:alias val="$add"/>
    <circle r="12.5" cx="12.5" cy="12.5" class="cell_$add$./Sonido.v:24$71"/>
    <line x1="7.5" x2="17.5" y1="12.5" y2="12.5" class="cell_$add$./Sonido.v:24$71"/>
    <line x1="12.5" x2="12.5" y1="7.5" y2="17.5" class="cell_$add$./Sonido.v:24$71"/>
    <g s:x="3" s:y="5" s:pid="A"/>
    <g s:x="3" s:y="20" s:pid="B"/>
    <g s:x="25" s:y="12.5" s:pid="Y"/>
  </g>
  <g s:type="eq" transform="translate(480,108)" s:width="25" s:height="25" id="cell_$eq$./Sonido.v:16$67">
    <s:alias val="$eq"/>
    <circle r="12.5" cx="12.5" cy="12.5" class="cell_$eq$./Sonido.v:16$67"/>
    <line x1="7.5" x2="17.5" y1="10" y2="10" class="cell_$eq$./Sonido.v:16$67"/>
    <line x1="7.5" x2="17.5" y1="15" y2="15" class="cell_$eq$./Sonido.v:16$67"/>
    <g s:x="3" s:y="5" s:pid="A"/>
    <g s:x="3" s:y="20" s:pid="B"/>
    <g s:x="25" s:y="12.5" s:pid="Y"/>
  </g>
  <g s:type="eq" transform="translate(86.33333333333333,664.5)" s:width="25" s:height="25" id="cell_$eq$./Sonido.v:26$72">
    <s:alias val="$eq"/>
    <circle r="12.5" cx="12.5" cy="12.5" class="cell_$eq$./Sonido.v:26$72"/>
    <line x1="7.5" x2="17.5" y1="10" y2="10" class="cell_$eq$./Sonido.v:26$72"/>
    <line x1="7.5" x2="17.5" y1="15" y2="15" class="cell_$eq$./Sonido.v:26$72"/>
    <g s:x="3" s:y="5" s:pid="A"/>
    <g s:x="3" s:y="20" s:pid="B"/>
    <g s:x="25" s:y="12.5" s:pid="Y"/>
  </g>
  <g s:type="and" transform="translate(240,302.5)" s:width="30" s:height="25" id="cell_$logic_and$./Sonido.v:16$68">
    <s:alias val="$and"/>
    <s:alias val="$logic_and"/>
    <s:alias val="$_AND_"/>
    <path d="M0,0 L0,25 L15,25 A15 12.5 0 0 0 15,0 Z" class="cell_$logic_and$./Sonido.v:16$68"/>
    <g s:x="0" s:y="5" s:pid="A"/>
    <g s:x="0" s:y="20" s:pid="B"/>
    <g s:x="30" s:y="12.5" s:pid="Y"/>
  </g>
  <g s:type="lt" transform="translate(480,340)" s:width="25" s:height="25" id="cell_$lt$./Sonido.v:16$66">
    <s:alias val="$lt"/>
    <circle r="12.5" cx="12.5" cy="12.5" class="cell_$lt$./Sonido.v:16$66"/>
    <line x1="7.5" x2="17.5" y1="12.5" y2="7.5" class="cell_$lt$./Sonido.v:16$66"/>
    <line x1="7.5" x2="17.5" y1="12.5" y2="17.5" class="cell_$lt$./Sonido.v:16$66"/>
    <g s:x="3" s:y="5" s:pid="A"/>
    <g s:x="3" s:y="20" s:pid="B"/>
    <g s:x="25" s:y="12.5" s:pid="Y"/>
  </g>
  <g s:type="lt" transform="translate(165,159)" s:width="25" s:height="25" id="cell_$lt$./Sonido.v:21$70">
    <s:alias val="$lt"/>
    <circle r="12.5" cx="12.5" cy="12.5" class="cell_$lt$./Sonido.v:21$70"/>
    <line x1="7.5" x2="17.5" y1="12.5" y2="7.5" class="cell_$lt$./Sonido.v:21$70"/>
    <line x1="7.5" x2="17.5" y1="12.5" y2="17.5" class="cell_$lt$./Sonido.v:21$70"/>
    <g s:x="3" s:y="5" s:pid="A"/>
    <g s:x="3" s:y="20" s:pid="B"/>
    <g s:x="25" s:y="12.5" s:pid="Y"/>
  </g>
  <g s:type="dff" transform="translate(400,502.5)" s:width="30" s:height="40" id="cell_$procdff$107">
    <s:alias val="$dff"/>
    <s:alias val="$_DFF_"/>
    <s:alias val="$_DFF_P_"/>
    <rect width="30" height="40" x="0" y="0" class="cell_$procdff$107"/>
    <path d="M0,35 L5,30 L0,25" class="cell_$procdff$107"/>
    <g s:x="30" s:y="10" s:pid="Q"/>
    <g s:x="0" s:y="30" s:pid="CLK"/>
    <g s:x="0" s:y="30" s:pid="C"/>
    <g s:x="0" s:y="10" s:pid="D"/>
  </g>
  <g s:type="dff" transform="translate(400,335)" s:width="30" s:height="40" id="cell_$procdff$108">
    <s:alias val="$dff"/>
    <s:alias val="$_DFF_"/>
    <s:alias val="$_DFF_P_"/>
    <rect width="30" height="40" x="0" y="0" class="cell_$procdff$108"/>
    <path d="M0,35 L5,30 L0,25" class="cell_$procdff$108"/>
    <g s:x="30" s:y="10" s:pid="Q"/>
    <g s:x="0" s:y="30" s:pid="CLK"/>
    <g s:x="0" s:y="30" s:pid="C"/>
    <g s:x="0" s:y="10" s:pid="D"/>
  </g>
  <g s:type="dff" transform="translate(400,215)" s:width="30" s:height="40" id="cell_$procdff$109">
    <s:alias val="$dff"/>
    <s:alias val="$_DFF_"/>
    <s:alias val="$_DFF_P_"/>
    <rect width="30" height="40" x="0" y="0" class="cell_$procdff$109"/>
    <path d="M0,35 L5,30 L0,25" class="cell_$procdff$109"/>
    <g s:x="30" s:y="10" s:pid="Q"/>
    <g s:x="0" s:y="30" s:pid="CLK"/>
    <g s:x="0" s:y="30" s:pid="C"/>
    <g s:x="0" s:y="10" s:pid="D"/>
  </g>
  <g s:type="mux" transform="translate(246.66666666666666,422.5)" s:width="20" s:height="40" id="cell_$procmux$102">
    <s:alias val="$pmux"/>
    <s:alias val="$mux"/>
    <s:alias val="$_MUX_"/>
    <path d="M0,0 L20,10 L20,30 L0,40 Z" class="cell_$procmux$102"/>
    <g s:x="0" s:y="10" s:pid="A"/>
    <g s:x="0" s:y="30" s:pid="B"/>
    <g s:x="10" s:y="35" s:pid="S"/>
    <g s:x="20" s:y="20" s:pid="Y"/>
  </g>
  <g s:type="mux" transform="translate(333.3333333333333,432.5)" s:width="20" s:height="40" id="cell_$procmux$105">
    <s:alias val="$pmux"/>
    <s:alias val="$mux"/>
    <s:alias val="$_MUX_"/>
    <path d="M0,0 L20,10 L20,30 L0,40 Z" class="cell_$procmux$105"/>
    <g s:x="0" s:y="10" s:pid="A"/>
    <g s:x="0" s:y="30" s:pid="B"/>
    <g s:x="10" s:y="35" s:pid="S"/>
    <g s:x="20" s:y="20" s:pid="Y"/>
  </g>
  <g s:type="mux" transform="translate(168.33333333333334,352.5)" s:width="20" s:height="40" id="cell_$procmux$85">
    <s:alias val="$pmux"/>
    <s:alias val="$mux"/>
    <s:alias val="$_MUX_"/>
    <path d="M0,0 L20,10 L20,30 L0,40 Z" class="cell_$procmux$85"/>
    <g s:x="0" s:y="10" s:pid="A"/>
    <g s:x="0" s:y="30" s:pid="B"/>
    <g s:x="10" s:y="35" s:pid="S"/>
    <g s:x="20" s:y="20" s:pid="Y"/>
  </g>
  <g s:type="mux" transform="translate(243.33333333333334,362.5)" s:width="20" s:height="40" id="cell_$procmux$88">
    <s:alias val="$pmux"/>
    <s:alias val="$mux"/>
    <s:alias val="$_MUX_"/>
    <path d="M0,0 L20,10 L20,30 L0,40 Z" class="cell_$procmux$88"/>
    <g s:x="0" s:y="10" s:pid="A"/>
    <g s:x="0" s:y="30" s:pid="B"/>
    <g s:x="10" s:y="35" s:pid="S"/>
    <g s:x="20" s:y="20" s:pid="Y"/>
  </g>
  <g s:type="mux" transform="translate(336.6666666666667,205)" s:width="20" s:height="40" id="cell_$procmux$91">
    <s:alias val="$pmux"/>
    <s:alias val="$mux"/>
    <s:alias val="$_MUX_"/>
    <path d="M0,0 L20,10 L20,30 L0,40 Z" class="cell_$procmux$91"/>
    <g s:x="0" s:y="10" s:pid="A"/>
    <g s:x="0" s:y="30" s:pid="B"/>
    <g s:x="10" s:y="35" s:pid="S"/>
    <g s:x="20" s:y="20" s:pid="Y"/>
  </g>
  <g s:type="mux" transform="translate(246.66666666666666,33)" s:width="20" s:height="40" id="cell_$procmux$94">
    <s:alias val="$pmux"/>
    <s:alias val="$mux"/>
    <s:alias val="$_MUX_"/>
    <path d="M0,0 L20,10 L20,30 L0,40 Z" class="cell_$procmux$94"/>
    <g s:x="0" s:y="10" s:pid="A"/>
    <g s:x="0" s:y="30" s:pid="B"/>
    <g s:x="10" s:y="35" s:pid="S"/>
    <g s:x="20" s:y="20" s:pid="Y"/>
  </g>
  <g s:type="mux" transform="translate(333.3333333333333,265)" s:width="20" s:height="40" id="cell_$procmux$97">
    <s:alias val="$pmux"/>
    <s:alias val="$mux"/>
    <s:alias val="$_MUX_"/>
    <path d="M0,0 L20,10 L20,30 L0,40 Z" class="cell_$procmux$97"/>
    <g s:x="0" s:y="10" s:pid="A"/>
    <g s:x="0" s:y="30" s:pid="B"/>
    <g s:x="10" s:y="35" s:pid="S"/>
    <g s:x="20" s:y="20" s:pid="Y"/>
  </g>
  <g s:type="mux" transform="translate(168.33333333333334,747)" s:width="20" s:height="40" id="cell_$procmux$99">
    <s:alias val="$pmux"/>
    <s:alias val="$mux"/>
    <s:alias val="$_MUX_"/>
    <path d="M0,0 L20,10 L20,30 L0,40 Z" class="cell_$procmux$99"/>
    <g s:x="0" s:y="10" s:pid="A"/>
    <g s:x="0" s:y="30" s:pid="B"/>
    <g s:x="10" s:y="35" s:pid="S"/>
    <g s:x="20" s:y="20" s:pid="Y"/>
  </g>
  <g s:type="inputExt" transform="translate(330,355)" s:width="30" s:height="20" id="cell_clk">
    <text x="15" y="-4" class="nodelabel cell_clk" s:attribute="ref">clk</text>
    <s:alias val="$_inputExt_"/>
    <path d="M0,0 L0,20 L15,20 L30,10 L15,0 Z" class="cell_clk"/>
    <g s:x="28" s:y="10" s:pid="Y"/>
  </g>
  <g s:type="outputExt" transform="translate(480,502.5)" s:width="30" s:height="20" id="cell_trigger">
    <text x="15" y="-4" class="nodelabel cell_trigger" s:attribute="ref">trigger</text>
    <s:alias val="$_outputExt_"/>
    <path d="M30,0 L30,20 L15,20 L0,10 L15,0 Z" class="cell_trigger"/>
    <g s:x="0" s:y="10" s:pid="A"/>
  </g>
  <g s:type="constant" transform="translate(77,609.5)" s:width="30" s:height="20" id="cell_1">
    <text x="15" y="-4" class="nodelabel cell_1" s:attribute="ref">1</text>
    <s:alias val="$_constant_"/>
    <rect width="30" height="20" class="cell_1"/>
    <g s:x="30" s:y="10" s:pid="Y"/>
  </g>
  <g s:type="constant" transform="translate(77,118)" s:width="30" s:height="20" id="cell_1101010110011111100000">
    <text x="15" y="-4" class="nodelabel cell_1101010110011111100000" s:attribute="ref">0x3567e0</text>
    <s:alias val="$_constant_"/>
    <rect width="30" height="20" class="cell_1101010110011111100000"/>
    <g s:x="30" s:y="10" s:pid="Y"/>
  </g>
  <g s:type="constant" transform="translate(12,674.5)" s:width="30" s:height="20" id="cell_111110100">
    <text x="15" y="-4" class="nodelabel cell_111110100" s:attribute="ref">0x1f4</text>
    <s:alias val="$_constant_"/>
    <rect width="30" height="20" class="cell_111110100"/>
    <g s:x="30" s:y="10" s:pid="Y"/>
  </g>
  <g s:type="constant" transform="translate(77,53)" s:width="30" s:height="20" id="cell_000000000000000000000000000000">
    <text x="15" y="-4" class="nodelabel cell_000000000000000000000000000000" s:attribute="ref">0x0</text>
    <s:alias val="$_constant_"/>
    <rect width="30" height="20" class="cell_000000000000000000000000000000"/>
    <g s:x="30" s:y="10" s:pid="Y"/>
  </g>
  <g s:type="constant" transform="translate(77,767)" s:width="30" s:height="20" id="cell_0">
    <text x="15" y="-4" class="nodelabel cell_0" s:attribute="ref">0</text>
    <s:alias val="$_constant_"/>
    <rect width="30" height="20" class="cell_0"/>
    <g s:x="30" s:y="10" s:pid="Y"/>
  </g>
  <line x1="430" x2="460" y1="345" y2="345" class="net_4,5,6,7,8,9,10,11,12,13,14,15,16,17,18,19,20,21,22,23,24,25,26,27,28,29,30,31,32,33"/>
  <line x1="460" x2="460" y1="345" y2="563.5" class="net_4,5,6,7,8,9,10,11,12,13,14,15,16,17,18,19,20,21,22,23,24,25,26,27,28,29,30,31,32,33"/>
  <line x1="460" x2="230" y1="563.5" y2="563.5" class="net_4,5,6,7,8,9,10,11,12,13,14,15,16,17,18,19,20,21,22,23,24,25,26,27,28,29,30,31,32,33"/>
  <line x1="230" x2="230" y1="563.5" y2="578.5" class="net_4,5,6,7,8,9,10,11,12,13,14,15,16,17,18,19,20,21,22,23,24,25,26,27,28,29,30,31,32,33"/>
  <line x1="230" x2="246.33333333333334" y1="578.5" y2="578.5" class="net_4,5,6,7,8,9,10,11,12,13,14,15,16,17,18,19,20,21,22,23,24,25,26,27,28,29,30,31,32,33"/>
  <line x1="430" x2="460" y1="345" y2="345" class="net_4,5,6,7,8,9,10,11,12,13,14,15,16,17,18,19,20,21,22,23,24,25,26,27,28,29,30,31,32,33"/>
  <line x1="460" x2="460" y1="345" y2="492.5" class="net_4,5,6,7,8,9,10,11,12,13,14,15,16,17,18,19,20,21,22,23,24,25,26,27,28,29,30,31,32,33"/>
  <line x1="460" x2="52" y1="492.5" y2="492.5" class="net_4,5,6,7,8,9,10,11,12,13,14,15,16,17,18,19,20,21,22,23,24,25,26,27,28,29,30,31,32,33"/>
  <line x1="52" x2="52" y1="492.5" y2="669.5" class="net_4,5,6,7,8,9,10,11,12,13,14,15,16,17,18,19,20,21,22,23,24,25,26,27,28,29,30,31,32,33"/>
  <circle cx="460" cy="492.5" r="2" style="fill:#000" class="net_4,5,6,7,8,9,10,11,12,13,14,15,16,17,18,19,20,21,22,23,24,25,26,27,28,29,30,31,32,33"/>
  <line x1="52" x2="89.33333333333333" y1="669.5" y2="669.5" class="net_4,5,6,7,8,9,10,11,12,13,14,15,16,17,18,19,20,21,22,23,24,25,26,27,28,29,30,31,32,33"/>
  <line x1="430" x2="483" y1="345" y2="345" class="net_4,5,6,7,8,9,10,11,12,13,14,15,16,17,18,19,20,21,22,23,24,25,26,27,28,29,30,31,32,33"/>
  <line x1="430" x2="460" y1="345" y2="345" class="net_4,5,6,7,8,9,10,11,12,13,14,15,16,17,18,19,20,21,22,23,24,25,26,27,28,29,30,31,32,33"/>
  <line x1="460" x2="460" y1="345" y2="23" class="net_4,5,6,7,8,9,10,11,12,13,14,15,16,17,18,19,20,21,22,23,24,25,26,27,28,29,30,31,32,33"/>
  <line x1="460" x2="230" y1="23" y2="23" class="net_4,5,6,7,8,9,10,11,12,13,14,15,16,17,18,19,20,21,22,23,24,25,26,27,28,29,30,31,32,33"/>
  <line x1="230" x2="230" y1="23" y2="43" class="net_4,5,6,7,8,9,10,11,12,13,14,15,16,17,18,19,20,21,22,23,24,25,26,27,28,29,30,31,32,33"/>
  <circle cx="460" cy="345" r="2" style="fill:#000" class="net_4,5,6,7,8,9,10,11,12,13,14,15,16,17,18,19,20,21,22,23,24,25,26,27,28,29,30,31,32,33"/>
  <line x1="230" x2="246.66666666666666" y1="43" y2="43" class="net_4,5,6,7,8,9,10,11,12,13,14,15,16,17,18,19,20,21,22,23,24,25,26,27,28,29,30,31,32,33"/>
  <line x1="107" x2="145" y1="619.5" y2="619.5" class="net_282"/>
  <line x1="145" x2="145" y1="619.5" y2="593.5" class="net_282"/>
  <circle cx="145" cy="619.5" r="2" style="fill:#000" class="net_282"/>
  <line x1="145" x2="246.33333333333334" y1="593.5" y2="593.5" class="net_282"/>
  <line x1="107" x2="145" y1="619.5" y2="619.5" class="net_282"/>
  <line x1="145" x2="145" y1="619.5" y2="707" class="net_282"/>
  <line x1="145" x2="168" y1="707" y2="707" class="net_282"/>
  <line x1="107" x2="300" y1="619.5" y2="619.5" class="net_282"/>
  <line x1="300" x2="300" y1="619.5" y2="462.5" class="net_282"/>
  <line x1="300" x2="333.3333333333333" y1="462.5" y2="462.5" class="net_282"/>
  <line x1="430" x2="440" y1="225" y2="225" class="net_64,65,66,67,68,69,70,71,72,73,74,75,76,77,78,79,80,81,82,83,84,85,86,87,88,89,90,91,92,93"/>
  <line x1="440" x2="440" y1="225" y2="608.5" class="net_64,65,66,67,68,69,70,71,72,73,74,75,76,77,78,79,80,81,82,83,84,85,86,87,88,89,90,91,92,93"/>
  <line x1="440" x2="155" y1="608.5" y2="608.5" class="net_64,65,66,67,68,69,70,71,72,73,74,75,76,77,78,79,80,81,82,83,84,85,86,87,88,89,90,91,92,93"/>
  <line x1="155" x2="155" y1="608.5" y2="692" class="net_64,65,66,67,68,69,70,71,72,73,74,75,76,77,78,79,80,81,82,83,84,85,86,87,88,89,90,91,92,93"/>
  <line x1="155" x2="168" y1="692" y2="692" class="net_64,65,66,67,68,69,70,71,72,73,74,75,76,77,78,79,80,81,82,83,84,85,86,87,88,89,90,91,92,93"/>
  <line x1="430" x2="440" y1="225" y2="225" class="net_64,65,66,67,68,69,70,71,72,73,74,75,76,77,78,79,80,81,82,83,84,85,86,87,88,89,90,91,92,93"/>
  <line x1="440" x2="440" y1="225" y2="113" class="net_64,65,66,67,68,69,70,71,72,73,74,75,76,77,78,79,80,81,82,83,84,85,86,87,88,89,90,91,92,93"/>
  <line x1="440" x2="483" y1="113" y2="113" class="net_64,65,66,67,68,69,70,71,72,73,74,75,76,77,78,79,80,81,82,83,84,85,86,87,88,89,90,91,92,93"/>
  <line x1="430" x2="440" y1="225" y2="225" class="net_64,65,66,67,68,69,70,71,72,73,74,75,76,77,78,79,80,81,82,83,84,85,86,87,88,89,90,91,92,93"/>
  <line x1="440" x2="440" y1="225" y2="149" class="net_64,65,66,67,68,69,70,71,72,73,74,75,76,77,78,79,80,81,82,83,84,85,86,87,88,89,90,91,92,93"/>
  <line x1="440" x2="155" y1="149" y2="149" class="net_64,65,66,67,68,69,70,71,72,73,74,75,76,77,78,79,80,81,82,83,84,85,86,87,88,89,90,91,92,93"/>
  <line x1="155" x2="155" y1="149" y2="164" class="net_64,65,66,67,68,69,70,71,72,73,74,75,76,77,78,79,80,81,82,83,84,85,86,87,88,89,90,91,92,93"/>
  <circle cx="440" cy="149" r="2" style="fill:#000" class="net_64,65,66,67,68,69,70,71,72,73,74,75,76,77,78,79,80,81,82,83,84,85,86,87,88,89,90,91,92,93"/>
  <circle cx="440" cy="225" r="2" style="fill:#000" class="net_64,65,66,67,68,69,70,71,72,73,74,75,76,77,78,79,80,81,82,83,84,85,86,87,88,89,90,91,92,93"/>
  <line x1="155" x2="168" y1="164" y2="164" class="net_64,65,66,67,68,69,70,71,72,73,74,75,76,77,78,79,80,81,82,83,84,85,86,87,88,89,90,91,92,93"/>
  <line x1="430" x2="440" y1="225" y2="225" class="net_64,65,66,67,68,69,70,71,72,73,74,75,76,77,78,79,80,81,82,83,84,85,86,87,88,89,90,91,92,93"/>
  <line x1="440" x2="440" y1="225" y2="194" class="net_64,65,66,67,68,69,70,71,72,73,74,75,76,77,78,79,80,81,82,83,84,85,86,87,88,89,90,91,92,93"/>
  <line x1="440" x2="155" y1="194" y2="194" class="net_64,65,66,67,68,69,70,71,72,73,74,75,76,77,78,79,80,81,82,83,84,85,86,87,88,89,90,91,92,93"/>
  <line x1="155" x2="155" y1="194" y2="362.5" class="net_64,65,66,67,68,69,70,71,72,73,74,75,76,77,78,79,80,81,82,83,84,85,86,87,88,89,90,91,92,93"/>
  <circle cx="440" cy="194" r="2" style="fill:#000" class="net_64,65,66,67,68,69,70,71,72,73,74,75,76,77,78,79,80,81,82,83,84,85,86,87,88,89,90,91,92,93"/>
  <line x1="155" x2="168.33333333333334" y1="362.5" y2="362.5" class="net_64,65,66,67,68,69,70,71,72,73,74,75,76,77,78,79,80,81,82,83,84,85,86,87,88,89,90,91,92,93"/>
  <line x1="430" x2="440" y1="225" y2="225" class="net_64,65,66,67,68,69,70,71,72,73,74,75,76,77,78,79,80,81,82,83,84,85,86,87,88,89,90,91,92,93"/>
  <line x1="440" x2="440" y1="225" y2="325" class="net_64,65,66,67,68,69,70,71,72,73,74,75,76,77,78,79,80,81,82,83,84,85,86,87,88,89,90,91,92,93"/>
  <line x1="440" x2="300" y1="325" y2="325" class="net_64,65,66,67,68,69,70,71,72,73,74,75,76,77,78,79,80,81,82,83,84,85,86,87,88,89,90,91,92,93"/>
  <line x1="300" x2="300" y1="325" y2="235" class="net_64,65,66,67,68,69,70,71,72,73,74,75,76,77,78,79,80,81,82,83,84,85,86,87,88,89,90,91,92,93"/>
  <circle cx="440" cy="325" r="2" style="fill:#000" class="net_64,65,66,67,68,69,70,71,72,73,74,75,76,77,78,79,80,81,82,83,84,85,86,87,88,89,90,91,92,93"/>
  <line x1="300" x2="336.6666666666667" y1="235" y2="235" class="net_64,65,66,67,68,69,70,71,72,73,74,75,76,77,78,79,80,81,82,83,84,85,86,87,88,89,90,91,92,93"/>
  <line x1="107" x2="483" y1="128" y2="128" class="net_284,285,286,287,288,289,290,291,292,293,294,295,296,297,298,299,300,301,302,303,304,305"/>
  <line x1="107" x2="145" y1="128" y2="128" class="net_284,285,286,287,288,289,290,291,292,293,294,295,296,297,298,299,300,301,302,303,304,305"/>
  <line x1="145" x2="145" y1="128" y2="179" class="net_284,285,286,287,288,289,290,291,292,293,294,295,296,297,298,299,300,301,302,303,304,305"/>
  <circle cx="145" cy="128" r="2" style="fill:#000" class="net_284,285,286,287,288,289,290,291,292,293,294,295,296,297,298,299,300,301,302,303,304,305"/>
  <line x1="145" x2="168" y1="179" y2="179" class="net_284,285,286,287,288,289,290,291,292,293,294,295,296,297,298,299,300,301,302,303,304,305"/>
  <line x1="42" x2="89.33333333333333" y1="684.5" y2="684.5" class="net_306,307,308,309,310,311,312,313,314"/>
  <line x1="42" x2="52" y1="684.5" y2="684.5" class="net_306,307,308,309,310,311,312,313,314"/>
  <line x1="52" x2="52" y1="684.5" y2="818" class="net_306,307,308,309,310,311,312,313,314"/>
  <line x1="52" x2="470" y1="818" y2="818" class="net_306,307,308,309,310,311,312,313,314"/>
  <line x1="470" x2="470" y1="818" y2="360" class="net_306,307,308,309,310,311,312,313,314"/>
  <circle cx="52" cy="684.5" r="2" style="fill:#000" class="net_306,307,308,309,310,311,312,313,314"/>
  <line x1="470" x2="483" y1="360" y2="360" class="net_306,307,308,309,310,311,312,313,314"/>
  <line x1="505" x2="532" y1="352.5" y2="352.5" class="net_126"/>
  <line x1="532" x2="532" y1="352.5" y2="183" class="net_126"/>
  <line x1="532" x2="230" y1="183" y2="183" class="net_126"/>
  <line x1="230" x2="230" y1="183" y2="307.5" class="net_126"/>
  <line x1="230" x2="240" y1="307.5" y2="307.5" class="net_126"/>
  <line x1="505" x2="532" y1="120.5" y2="120.5" class="net_124"/>
  <line x1="532" x2="532" y1="120.5" y2="12" class="net_124"/>
  <line x1="532" x2="220" y1="12" y2="12" class="net_124"/>
  <line x1="220" x2="220" y1="12" y2="322.5" class="net_124"/>
  <line x1="220" x2="240" y1="322.5" y2="322.5" class="net_124"/>
  <line x1="358" x2="380" y1="365" y2="365" class="net_2"/>
  <line x1="380" x2="380" y1="365" y2="532.5" class="net_2"/>
  <circle cx="380" cy="365" r="2" style="fill:#000" class="net_2"/>
  <line x1="380" x2="400" y1="532.5" y2="532.5" class="net_2"/>
  <line x1="358" x2="400" y1="365" y2="365" class="net_2"/>
  <line x1="358" x2="380" y1="365" y2="365" class="net_2"/>
  <line x1="380" x2="380" y1="365" y2="245" class="net_2"/>
  <line x1="380" x2="400" y1="245" y2="245" class="net_2"/>
  <line x1="353.3333333333333" x2="370" y1="452.5" y2="452.5" class="net_129"/>
  <line x1="370" x2="370" y1="452.5" y2="512.5" class="net_129"/>
  <line x1="370" x2="400" y1="512.5" y2="512.5" class="net_129"/>
  <line x1="353.3333333333333" x2="390" y1="285" y2="285" class="net_130,131,132,133,134,135,136,137,138,139,140,141,142,143,144,145,146,147,148,149,150,151,152,153,154,155,156,157,158,159"/>
  <line x1="390" x2="390" y1="285" y2="345" class="net_130,131,132,133,134,135,136,137,138,139,140,141,142,143,144,145,146,147,148,149,150,151,152,153,154,155,156,157,158,159"/>
  <line x1="390" x2="400" y1="345" y2="345" class="net_130,131,132,133,134,135,136,137,138,139,140,141,142,143,144,145,146,147,148,149,150,151,152,153,154,155,156,157,158,159"/>
  <line x1="356.6666666666667" x2="400" y1="225" y2="225" class="net_160,161,162,163,164,165,166,167,168,169,170,171,172,173,174,175,176,177,178,179,180,181,182,183,184,185,186,187,188,189"/>
  <line x1="188.33333333333334" x2="220" y1="767" y2="767" class="net_190"/>
  <line x1="220" x2="220" y1="767" y2="432.5" class="net_190"/>
  <line x1="220" x2="246.66666666666666" y1="432.5" y2="432.5" class="net_190"/>
  <line x1="430" x2="450" y1="512.5" y2="512.5" class="net_3"/>
  <line x1="450" x2="450" y1="512.5" y2="552.5" class="net_3"/>
  <line x1="450" x2="230" y1="552.5" y2="552.5" class="net_3"/>
  <line x1="230" x2="230" y1="552.5" y2="452.5" class="net_3"/>
  <circle cx="450" cy="552.5" r="2" style="fill:#000" class="net_3"/>
  <circle cx="450" cy="512.5" r="2" style="fill:#000" class="net_3"/>
  <line x1="230" x2="246.66666666666666" y1="452.5" y2="452.5" class="net_3"/>
  <line x1="430" x2="450" y1="512.5" y2="512.5" class="net_3"/>
  <line x1="450" x2="450" y1="512.5" y2="807" class="net_3"/>
  <line x1="450" x2="155" y1="807" y2="807" class="net_3"/>
  <line x1="155" x2="155" y1="807" y2="757" class="net_3"/>
  <line x1="155" x2="168.33333333333334" y1="757" y2="757" class="net_3"/>
  <line x1="430" x2="480" y1="512.5" y2="512.5" class="net_3"/>
  <line x1="190" x2="210" y1="171.5" y2="171.5" class="net_128"/>
  <line x1="210" x2="210" y1="171.5" y2="472.5" class="net_128"/>
  <line x1="210" x2="256.66666666666663" y1="472.5" y2="472.5" class="net_128"/>
  <circle cx="210" cy="171.5" r="2" style="fill:#000" class="net_128"/>
  <line x1="256.66666666666663" x2="256.66666666666663" y1="472.5" y2="457.5" class="net_128"/>
  <line x1="190" x2="210" y1="171.5" y2="171.5" class="net_128"/>
  <line x1="210" x2="210" y1="171.5" y2="412.5" class="net_128"/>
  <line x1="210" x2="253.33333333333334" y1="412.5" y2="412.5" class="net_128"/>
  <circle cx="210" cy="412.5" r="2" style="fill:#000" class="net_128"/>
  <line x1="253.33333333333334" x2="253.33333333333334" y1="412.5" y2="397.5" class="net_128"/>
  <line x1="190" x2="210" y1="171.5" y2="171.5" class="net_128"/>
  <line x1="210" x2="210" y1="171.5" y2="139" class="net_128"/>
  <line x1="210" x2="256.66666666666663" y1="139" y2="139" class="net_128"/>
  <line x1="256.66666666666663" x2="256.66666666666663" y1="139" y2="68" class="net_128"/>
  <line x1="266.66666666666663" x2="333.3333333333333" y1="442.5" y2="442.5" class="net_191"/>
  <line x1="270" x2="310" y1="315" y2="315" class="net_127"/>
  <line x1="310" x2="310" y1="315" y2="482.5" class="net_127"/>
  <line x1="310" x2="343.3333333333333" y1="482.5" y2="482.5" class="net_127"/>
  <circle cx="310" cy="315" r="2" style="fill:#000" class="net_127"/>
  <line x1="343.3333333333333" x2="343.3333333333333" y1="482.5" y2="467.5" class="net_127"/>
  <line x1="270" x2="310" y1="315" y2="315" class="net_127"/>
  <line x1="310" x2="310" y1="315" y2="255" class="net_127"/>
  <line x1="310" x2="346.6666666666667" y1="255" y2="255" class="net_127"/>
  <line x1="346.6666666666667" x2="346.6666666666667" y1="255" y2="240" class="net_127"/>
  <line x1="270" x2="343.3333333333333" y1="315" y2="315" class="net_127"/>
  <line x1="343.3333333333333" x2="343.3333333333333" y1="315" y2="300" class="net_127"/>
  <line x1="107" x2="135" y1="63" y2="63" class="net_347,348,349,350,351,352,353,354,355,356,357,358,359,360,361,362,363,364,365,366,367,368,369,370,371,372,373,374,375,376"/>
  <line x1="135" x2="135" y1="63" y2="382.5" class="net_347,348,349,350,351,352,353,354,355,356,357,358,359,360,361,362,363,364,365,366,367,368,369,370,371,372,373,374,375,376"/>
  <circle cx="135" cy="63" r="2" style="fill:#000" class="net_347,348,349,350,351,352,353,354,355,356,357,358,359,360,361,362,363,364,365,366,367,368,369,370,371,372,373,374,375,376"/>
  <line x1="135" x2="168.33333333333334" y1="382.5" y2="382.5" class="net_347,348,349,350,351,352,353,354,355,356,357,358,359,360,361,362,363,364,365,366,367,368,369,370,371,372,373,374,375,376"/>
  <line x1="107" x2="246.66666666666666" y1="63" y2="63" class="net_347,348,349,350,351,352,353,354,355,356,357,358,359,360,361,362,363,364,365,366,367,368,369,370,371,372,373,374,375,376"/>
  <line x1="111.33333333333333" x2="178.33333333333334" y1="677" y2="677" class="net_125"/>
  <line x1="178.33333333333334" x2="178.33333333333334" y1="677" y2="387.5" class="net_125"/>
  <line x1="111.33333333333333" x2="135" y1="677" y2="677" class="net_125"/>
  <line x1="135" x2="135" y1="677" y2="797" class="net_125"/>
  <line x1="135" x2="178.33333333333334" y1="797" y2="797" class="net_125"/>
  <circle cx="135" cy="677" r="2" style="fill:#000" class="net_125"/>
  <line x1="178.33333333333334" x2="178.33333333333334" y1="797" y2="782" class="net_125"/>
  <line x1="188.33333333333334" x2="243.33333333333334" y1="372.5" y2="372.5" class="net_192,193,194,195,196,197,198,199,200,201,202,203,204,205,206,207,208,209,210,211,212,213,214,215,216,217,218,219,220,221"/>
  <line x1="190" x2="200" y1="699.5" y2="699.5" class="net_94,95,96,97,98,99,100,101,102,103,104,105,106,107,108,109,110,111,112,113,114,115,116,117,118,119,120,121,122,123"/>
  <line x1="200" x2="200" y1="699.5" y2="392.5" class="net_94,95,96,97,98,99,100,101,102,103,104,105,106,107,108,109,110,111,112,113,114,115,116,117,118,119,120,121,122,123"/>
  <line x1="200" x2="243.33333333333334" y1="392.5" y2="392.5" class="net_94,95,96,97,98,99,100,101,102,103,104,105,106,107,108,109,110,111,112,113,114,115,116,117,118,119,120,121,122,123"/>
  <line x1="263.33333333333337" x2="280" y1="382.5" y2="382.5" class="net_222,223,224,225,226,227,228,229,230,231,232,233,234,235,236,237,238,239,240,241,242,243,244,245,246,247,248,249,250,251"/>
  <line x1="280" x2="280" y1="382.5" y2="215" class="net_222,223,224,225,226,227,228,229,230,231,232,233,234,235,236,237,238,239,240,241,242,243,244,245,246,247,248,249,250,251"/>
  <line x1="280" x2="336.6666666666667" y1="215" y2="215" class="net_222,223,224,225,226,227,228,229,230,231,232,233,234,235,236,237,238,239,240,241,242,243,244,245,246,247,248,249,250,251"/>
  <line x1="266.66666666666663" x2="320" y1="53" y2="53" class="net_252,253,254,255,256,257,258,259,260,261,262,263,264,265,266,267,268,269,270,271,272,273,274,275,276,277,278,279,280,281"/>
  <line x1="320" x2="320" y1="53" y2="275" class="net_252,253,254,255,256,257,258,259,260,261,262,263,264,265,266,267,268,269,270,271,272,273,274,275,276,277,278,279,280,281"/>
  <line x1="320" x2="333.3333333333333" y1="275" y2="275" class="net_252,253,254,255,256,257,258,259,260,261,262,263,264,265,266,267,268,269,270,271,272,273,274,275,276,277,278,279,280,281"/>
  <line x1="268.33333333333337" x2="290" y1="586" y2="586" class="net_34,35,36,37,38,39,40,41,42,43,44,45,46,47,48,49,50,51,52,53,54,55,56,57,58,59,60,61,62,63"/>
  <line x1="290" x2="290" y1="586" y2="295" class="net_34,35,36,37,38,39,40,41,42,43,44,45,46,47,48,49,50,51,52,53,54,55,56,57,58,59,60,61,62,63"/>
  <line x1="290" x2="333.3333333333333" y1="295" y2="295" class="net_34,35,36,37,38,39,40,41,42,43,44,45,46,47,48,49,50,51,52,53,54,55,56,57,58,59,60,61,62,63"/>
  <line x1="107" x2="168.33333333333334" y1="777" y2="777" class="net_407"/>
</svg>
