<svg xmlns="http://www.w3.org/2000/svg" xmlns:xlink="http://www.w3.org/1999/xlink" xmlns:s="https://github.com/nturley/netlistsvg" width="534" height="402">
  <style>svg {
    stroke:#000;
    fill:none;
  }
  text {
    fill:#000;
    stroke:none;
    font-size:10px;
    font-weight: bold;
    font-family: "Courier New", monospace;
  }
  .nodelabel {
    text-anchor: middle;
  }
  .inputPortLabel {
    text-anchor: end;
  }
  .splitjoinBody {
    fill:#000;
  }</style>
  <g s:type="dff" transform="translate(427,33)" s:width="30" s:height="40" id="cell_$procdff$105">
    <s:alias val="$dff"/>
    <s:alias val="$_DFF_"/>
    <s:alias val="$_DFF_P_"/>
    <rect width="30" height="40" x="0" y="0" class="cell_$procdff$105"/>
    <path d="M0,35 L5,30 L0,25" class="cell_$procdff$105"/>
    <g s:x="30" s:y="10" s:pid="Q"/>
    <g s:x="0" s:y="30" s:pid="CLK"/>
    <g s:x="0" s:y="30" s:pid="C"/>
    <g s:x="0" s:y="10" s:pid="D"/>
  </g>
  <g s:type="dff" transform="translate(427,128)" s:width="30" s:height="40" id="cell_$procdff$106">
    <s:alias val="$dff"/>
    <s:alias val="$_DFF_"/>
    <s:alias val="$_DFF_P_"/>
    <rect width="30" height="40" x="0" y="0" class="cell_$procdff$106"/>
    <path d="M0,35 L5,30 L0,25" class="cell_$procdff$106"/>
    <g s:x="30" s:y="10" s:pid="Q"/>
    <g s:x="0" s:y="30" s:pid="CLK"/>
    <g s:x="0" s:y="30" s:pid="C"/>
    <g s:x="0" s:y="10" s:pid="D"/>
  </g>
  <g s:type="dff" transform="translate(427,329)" s:width="30" s:height="40" id="cell_$procdff$107">
    <s:alias val="$dff"/>
    <s:alias val="$_DFF_"/>
    <s:alias val="$_DFF_P_"/>
    <rect width="30" height="40" x="0" y="0" class="cell_$procdff$107"/>
    <path d="M0,35 L5,30 L0,25" class="cell_$procdff$107"/>
    <g s:x="30" s:y="10" s:pid="Q"/>
    <g s:x="0" s:y="30" s:pid="CLK"/>
    <g s:x="0" s:y="30" s:pid="C"/>
    <g s:x="0" s:y="10" s:pid="D"/>
  </g>
  <g s:type="mux" transform="translate(263.66666666666663,33)" s:width="20" s:height="40" id="cell_$procmux$101">
    <s:alias val="$pmux"/>
    <s:alias val="$mux"/>
    <s:alias val="$_MUX_"/>
    <path d="M0,0 L20,10 L20,30 L0,40 Z" class="cell_$procmux$101"/>
    <g s:x="0" s:y="10" s:pid="A"/>
    <g s:x="0" s:y="30" s:pid="B"/>
    <g s:x="10" s:y="35" s:pid="S"/>
    <g s:x="20" s:y="20" s:pid="Y"/>
  </g>
  <g s:type="mux" transform="translate(365.3333333333333,23)" s:width="20" s:height="40" id="cell_$procmux$103">
    <s:alias val="$pmux"/>
    <s:alias val="$mux"/>
    <s:alias val="$_MUX_"/>
    <path d="M0,0 L20,10 L20,30 L0,40 Z" class="cell_$procmux$103"/>
    <g s:x="0" s:y="10" s:pid="A"/>
    <g s:x="0" s:y="30" s:pid="B"/>
    <g s:x="10" s:y="35" s:pid="S"/>
    <g s:x="20" s:y="20" s:pid="Y"/>
  </g>
  <g s:type="mux" transform="translate(142.33333333333334,239)" s:width="20" s:height="40" id="cell_$procmux$86">
    <s:alias val="$pmux"/>
    <s:alias val="$mux"/>
    <s:alias val="$_MUX_"/>
    <path d="M0,0 L20,10 L20,30 L0,40 Z" class="cell_$procmux$86"/>
    <g s:x="0" s:y="10" s:pid="A"/>
    <g s:x="0" s:y="30" s:pid="B"/>
    <g s:x="10" s:y="35" s:pid="S"/>
    <g s:x="20" s:y="20" s:pid="Y"/>
  </g>
  <g s:type="mux" transform="translate(263.66666666666663,329)" s:width="20" s:height="40" id="cell_$procmux$88">
    <s:alias val="$pmux"/>
    <s:alias val="$mux"/>
    <s:alias val="$_MUX_"/>
    <path d="M0,0 L20,10 L20,30 L0,40 Z" class="cell_$procmux$88"/>
    <g s:x="0" s:y="10" s:pid="A"/>
    <g s:x="0" s:y="30" s:pid="B"/>
    <g s:x="10" s:y="35" s:pid="S"/>
    <g s:x="20" s:y="20" s:pid="Y"/>
  </g>
  <g s:type="mux" transform="translate(368.6666666666667,319)" s:width="20" s:height="40" id="cell_$procmux$90">
    <s:alias val="$pmux"/>
    <s:alias val="$mux"/>
    <s:alias val="$_MUX_"/>
    <path d="M0,0 L20,10 L20,30 L0,40 Z" class="cell_$procmux$90"/>
    <g s:x="0" s:y="10" s:pid="A"/>
    <g s:x="0" s:y="30" s:pid="B"/>
    <g s:x="10" s:y="35" s:pid="S"/>
    <g s:x="20" s:y="20" s:pid="Y"/>
  </g>
  <g s:type="mux" transform="translate(263.66666666666663,229)" s:width="20" s:height="40" id="cell_$procmux$96">
    <s:alias val="$pmux"/>
    <s:alias val="$mux"/>
    <s:alias val="$_MUX_"/>
    <path d="M0,0 L20,10 L20,30 L0,40 Z" class="cell_$procmux$96"/>
    <g s:x="0" s:y="10" s:pid="A"/>
    <g s:x="0" s:y="30" s:pid="B"/>
    <g s:x="10" s:y="35" s:pid="S"/>
    <g s:x="20" s:y="20" s:pid="Y"/>
  </g>
  <g s:type="mux" transform="translate(365.3333333333333,118)" s:width="20" s:height="40" id="cell_$procmux$98">
    <s:alias val="$pmux"/>
    <s:alias val="$mux"/>
    <s:alias val="$_MUX_"/>
    <path d="M0,0 L20,10 L20,30 L0,40 Z" class="cell_$procmux$98"/>
    <g s:x="0" s:y="10" s:pid="A"/>
    <g s:x="0" s:y="30" s:pid="B"/>
    <g s:x="10" s:y="35" s:pid="S"/>
    <g s:x="20" s:y="20" s:pid="Y"/>
  </g>
  <g s:type="inputExt" transform="translate(362,189)" s:width="30" s:height="20" id="cell_clk">
    <text x="15" y="-4" class="nodelabel cell_clk" s:attribute="ref">clk</text>
    <s:alias val="$_inputExt_"/>
    <path d="M0,0 L0,20 L15,20 L30,10 L15,0 Z" class="cell_clk"/>
    <g s:x="28" s:y="10" s:pid="Y"/>
  </g>
  <g s:type="inputExt" transform="translate(12,279)" s:width="30" s:height="20" id="cell_senal_alcohol">
    <text x="15" y="-4" class="nodelabel cell_senal_alcohol" s:attribute="ref">senal_alcohol</text>
    <s:alias val="$_inputExt_"/>
    <path d="M0,0 L0,20 L15,20 L30,10 L15,0 Z" class="cell_senal_alcohol"/>
    <g s:x="28" s:y="10" s:pid="Y"/>
  </g>
  <g s:type="inputExt" transform="translate(125,309)" s:width="30" s:height="20" id="cell_senal_sonido">
    <text x="15" y="-4" class="nodelabel cell_senal_sonido" s:attribute="ref">senal_sonido</text>
    <s:alias val="$_inputExt_"/>
    <path d="M0,0 L0,20 L15,20 L30,10 L15,0 Z" class="cell_senal_sonido"/>
    <g s:x="28" s:y="10" s:pid="Y"/>
  </g>
  <g s:type="inputExt" transform="translate(237,159)" s:width="30" s:height="20" id="cell_senal_distancia">
    <text x="15" y="-4" class="nodelabel cell_senal_distancia" s:attribute="ref">senal_distancia</text>
    <s:alias val="$_inputExt_"/>
    <path d="M0,0 L0,20 L15,20 L30,10 L15,0 Z" class="cell_senal_distancia"/>
    <g s:x="28" s:y="10" s:pid="Y"/>
  </g>
  <g s:type="outputExt" transform="translate(492,33)" s:width="30" s:height="20" id="cell_led1">
    <text x="15" y="-4" class="nodelabel cell_led1" s:attribute="ref">led1</text>
    <s:alias val="$_outputExt_"/>
    <path d="M30,0 L30,20 L15,20 L0,10 L15,0 Z" class="cell_led1"/>
    <g s:x="0" s:y="10" s:pid="A"/>
  </g>
  <g s:type="outputExt" transform="translate(492,128)" s:width="30" s:height="20" id="cell_led2">
    <text x="15" y="-4" class="nodelabel cell_led2" s:attribute="ref">led2</text>
    <s:alias val="$_outputExt_"/>
    <path d="M30,0 L30,20 L15,20 L0,10 L15,0 Z" class="cell_led2"/>
    <g s:x="0" s:y="10" s:pid="A"/>
  </g>
  <g s:type="outputExt" transform="translate(492,329)" s:width="30" s:height="20" id="cell_rele">
    <text x="15" y="-4" class="nodelabel cell_rele" s:attribute="ref">rele</text>
    <s:alias val="$_outputExt_"/>
    <path d="M30,0 L30,20 L15,20 L0,10 L15,0 Z" class="cell_rele"/>
    <g s:x="0" s:y="10" s:pid="A"/>
  </g>
  <g s:type="constant" transform="translate(12,53)" s:width="30" s:height="20" id="cell_0">
    <text x="15" y="-4" class="nodelabel cell_0" s:attribute="ref">0</text>
    <s:alias val="$_constant_"/>
    <rect width="30" height="20" class="cell_0"/>
    <g s:x="30" s:y="10" s:pid="Y"/>
  </g>
  <g s:type="constant" transform="translate(12,118)" s:width="30" s:height="20" id="cell_1">
    <text x="15" y="-4" class="nodelabel cell_1" s:attribute="ref">1</text>
    <s:alias val="$_constant_"/>
    <rect width="30" height="20" class="cell_1"/>
    <g s:x="30" s:y="10" s:pid="Y"/>
  </g>
  <line x1="390" x2="402" y1="199" y2="199" class="net_2"/>
  <line x1="402" x2="402" y1="199" y2="63" class="net_2"/>
  <circle cx="402" cy="199" r="2" style="fill:#000" class="net_2"/>
  <line x1="402" x2="427" y1="63" y2="63" class="net_2"/>
  <line x1="390" x2="402" y1="199" y2="199" class="net_2"/>
  <line x1="402" x2="402" y1="199" y2="158" class="net_2"/>
  <circle cx="402" cy="158" r="2" style="fill:#000" class="net_2"/>
  <line x1="402" x2="427" y1="158" y2="158" class="net_2"/>
  <line x1="390" x2="402" y1="199" y2="199" class="net_2"/>
  <line x1="402" x2="402" y1="199" y2="359" class="net_2"/>
  <line x1="402" x2="427" y1="359" y2="359" class="net_2"/>
  <line x1="385.3333333333333" x2="427" y1="43" y2="43" class="net_9"/>
  <line x1="385.3333333333333" x2="427" y1="138" y2="138" class="net_10"/>
  <line x1="388.6666666666667" x2="427" y1="339" y2="339" class="net_11"/>
  <line x1="457" x2="467" y1="43" y2="43" class="net_6"/>
  <line x1="467" x2="467" y1="43" y2="12" class="net_6"/>
  <line x1="467" x2="227" y1="12" y2="12" class="net_6"/>
  <line x1="227" x2="227" y1="12" y2="43" class="net_6"/>
  <circle cx="467" cy="43" r="2" style="fill:#000" class="net_6"/>
  <line x1="227" x2="263.66666666666663" y1="43" y2="43" class="net_6"/>
  <line x1="457" x2="492" y1="43" y2="43" class="net_6"/>
  <line x1="42" x2="263.66666666666663" y1="63" y2="63" class="net_16"/>
  <line x1="42" x2="110" y1="63" y2="63" class="net_16"/>
  <line x1="110" x2="110" y1="63" y2="249" class="net_16"/>
  <circle cx="110" cy="63" r="2" style="fill:#000" class="net_16"/>
  <line x1="110" x2="142.33333333333334" y1="249" y2="249" class="net_16"/>
  <line x1="153" x2="207" y1="319" y2="319" class="net_4"/>
  <line x1="207" x2="207" y1="319" y2="139" class="net_4"/>
  <line x1="207" x2="273.66666666666663" y1="139" y2="139" class="net_4"/>
  <circle cx="207" cy="319" r="2" style="fill:#000" class="net_4"/>
  <line x1="273.66666666666663" x2="273.66666666666663" y1="139" y2="68" class="net_4"/>
  <line x1="153" x2="207" y1="319" y2="319" class="net_4"/>
  <line x1="207" x2="207" y1="319" y2="379" class="net_4"/>
  <line x1="207" x2="273.66666666666663" y1="379" y2="379" class="net_4"/>
  <line x1="273.66666666666663" x2="273.66666666666663" y1="379" y2="364" class="net_4"/>
  <line x1="153" x2="273.66666666666663" y1="319" y2="319" class="net_4"/>
  <line x1="273.66666666666663" x2="273.66666666666663" y1="319" y2="264" class="net_4"/>
  <line x1="42" x2="337" y1="128" y2="128" class="net_17"/>
  <line x1="337" x2="337" y1="128" y2="33" class="net_17"/>
  <circle cx="337" cy="128" r="2" style="fill:#000" class="net_17"/>
  <line x1="337" x2="365.3333333333333" y1="33" y2="33" class="net_17"/>
  <line x1="42" x2="100" y1="128" y2="128" class="net_17"/>
  <line x1="100" x2="100" y1="128" y2="269" class="net_17"/>
  <circle cx="100" cy="128" r="2" style="fill:#000" class="net_17"/>
  <line x1="100" x2="142.33333333333334" y1="269" y2="269" class="net_17"/>
  <line x1="42" x2="365.3333333333333" y1="128" y2="128" class="net_17"/>
  <line x1="283.66666666666663" x2="365.3333333333333" y1="53" y2="53" class="net_12"/>
  <line x1="265" x2="347" y1="169" y2="169" class="net_5"/>
  <line x1="347" x2="347" y1="169" y2="108" class="net_5"/>
  <line x1="347" x2="375.3333333333333" y1="108" y2="108" class="net_5"/>
  <circle cx="347" cy="169" r="2" style="fill:#000" class="net_5"/>
  <line x1="375.3333333333333" x2="375.3333333333333" y1="108" y2="58" class="net_5"/>
  <line x1="265" x2="347" y1="169" y2="169" class="net_5"/>
  <line x1="347" x2="347" y1="169" y2="369" class="net_5"/>
  <line x1="347" x2="378.6666666666667" y1="369" y2="369" class="net_5"/>
  <line x1="378.6666666666667" x2="378.6666666666667" y1="369" y2="354" class="net_5"/>
  <line x1="265" x2="375.3333333333333" y1="169" y2="169" class="net_5"/>
  <line x1="375.3333333333333" x2="375.3333333333333" y1="169" y2="153" class="net_5"/>
  <line x1="40" x2="152.33333333333334" y1="289" y2="289" class="net_3"/>
  <line x1="152.33333333333334" x2="152.33333333333334" y1="289" y2="274" class="net_3"/>
  <line x1="457" x2="467" y1="339" y2="339" class="net_8"/>
  <line x1="467" x2="467" y1="339" y2="389" class="net_8"/>
  <line x1="467" x2="217" y1="389" y2="389" class="net_8"/>
  <line x1="217" x2="217" y1="389" y2="339" class="net_8"/>
  <circle cx="467" cy="339" r="2" style="fill:#000" class="net_8"/>
  <line x1="217" x2="263.66666666666663" y1="339" y2="339" class="net_8"/>
  <line x1="457" x2="467" y1="339" y2="339" class="net_8"/>
  <line x1="467" x2="467" y1="339" y2="389" class="net_8"/>
  <line x1="467" x2="337" y1="389" y2="389" class="net_8"/>
  <line x1="337" x2="337" y1="389" y2="329" class="net_8"/>
  <circle cx="337" cy="389" r="2" style="fill:#000" class="net_8"/>
  <line x1="337" x2="368.6666666666667" y1="329" y2="329" class="net_8"/>
  <line x1="457" x2="492" y1="339" y2="339" class="net_8"/>
  <line x1="162.33333333333334" x2="227" y1="259" y2="259" class="net_13"/>
  <line x1="227" x2="227" y1="259" y2="359" class="net_13"/>
  <circle cx="227" cy="259" r="2" style="fill:#000" class="net_13"/>
  <line x1="227" x2="263.66666666666663" y1="359" y2="359" class="net_13"/>
  <line x1="162.33333333333334" x2="263.66666666666663" y1="259" y2="259" class="net_13"/>
  <line x1="283.66666666666663" x2="368.6666666666667" y1="349" y2="349" class="net_14"/>
  <line x1="457" x2="467" y1="138" y2="138" class="net_7"/>
  <line x1="467" x2="467" y1="138" y2="219" class="net_7"/>
  <line x1="467" x2="227" y1="219" y2="219" class="net_7"/>
  <line x1="227" x2="227" y1="219" y2="239" class="net_7"/>
  <circle cx="467" cy="138" r="2" style="fill:#000" class="net_7"/>
  <line x1="227" x2="263.66666666666663" y1="239" y2="239" class="net_7"/>
  <line x1="457" x2="492" y1="138" y2="138" class="net_7"/>
  <line x1="283.66666666666663" x2="337" y1="249" y2="249" class="net_15"/>
  <line x1="337" x2="337" y1="249" y2="148" class="net_15"/>
  <line x1="337" x2="365.3333333333333" y1="148" y2="148" class="net_15"/>
</svg>
